<svg width="321" height="111" viewBox="0 0 321 111" fill="none" xmlns="http://www.w3.org/2000/svg">
<path d="M130.406 95.5352C130.406 95.2305 130.359 94.957 130.266 94.7148C130.18 94.4648 130.016 94.2383 129.773 94.0352C129.531 93.8242 129.191 93.6172 128.754 93.4141C128.316 93.2109 127.75 93 127.055 92.7812C126.281 92.5312 125.547 92.25 124.852 91.9375C124.164 91.625 123.555 91.2617 123.023 90.8477C122.5 90.4258 122.086 89.9375 121.781 89.3828C121.484 88.8281 121.336 88.1836 121.336 87.4492C121.336 86.7383 121.492 86.0938 121.805 85.5156C122.117 84.9297 122.555 84.4297 123.117 84.0156C123.68 83.5938 124.344 83.2695 125.109 83.043C125.883 82.8164 126.73 82.7031 127.652 82.7031C128.91 82.7031 130.008 82.9297 130.945 83.3828C131.883 83.8359 132.609 84.457 133.125 85.2461C133.648 86.0352 133.91 86.9375 133.91 87.9531H130.418C130.418 87.4531 130.312 87.0156 130.102 86.6406C129.898 86.2578 129.586 85.957 129.164 85.7383C128.75 85.5195 128.227 85.4102 127.594 85.4102C126.984 85.4102 126.477 85.5039 126.07 85.6914C125.664 85.8711 125.359 86.1172 125.156 86.4297C124.953 86.7344 124.852 87.0781 124.852 87.4609C124.852 87.75 124.922 88.0117 125.062 88.2461C125.211 88.4805 125.43 88.6992 125.719 88.9023C126.008 89.1055 126.363 89.2969 126.785 89.4766C127.207 89.6562 127.695 89.832 128.25 90.0039C129.18 90.2852 129.996 90.6016 130.699 90.9531C131.41 91.3047 132.004 91.6992 132.48 92.1367C132.957 92.5742 133.316 93.0703 133.559 93.625C133.801 94.1797 133.922 94.8086 133.922 95.5117C133.922 96.2539 133.777 96.918 133.488 97.5039C133.199 98.0898 132.781 98.5859 132.234 98.9922C131.688 99.3984 131.035 99.707 130.277 99.918C129.52 100.129 128.672 100.234 127.734 100.234C126.891 100.234 126.059 100.125 125.238 99.9062C124.418 99.6797 123.672 99.3398 123 98.8867C122.336 98.4336 121.805 97.8555 121.406 97.1523C121.008 96.4492 120.809 95.6172 120.809 94.6562H124.336C124.336 95.1875 124.418 95.6367 124.582 96.0039C124.746 96.3711 124.977 96.668 125.273 96.8945C125.578 97.1211 125.938 97.2852 126.352 97.3867C126.773 97.4883 127.234 97.5391 127.734 97.5391C128.344 97.5391 128.844 97.4531 129.234 97.2812C129.633 97.1094 129.926 96.8711 130.113 96.5664C130.309 96.2617 130.406 95.918 130.406 95.5352ZM143.941 82.9375V100H140.438V82.9375H143.941ZM149.191 82.9375V85.6914H135.27V82.9375H149.191ZM156.867 85.8555L152.227 100H148.488L154.828 82.9375H157.207L156.867 85.8555ZM160.723 100L156.07 85.8555L155.695 82.9375H158.098L164.473 100H160.723ZM160.512 93.6484V96.4023H151.5V93.6484H160.512ZM166.055 82.9375H172.418C173.723 82.9375 174.844 83.1328 175.781 83.5234C176.727 83.9141 177.453 84.4922 177.961 85.2578C178.469 86.0234 178.723 86.9648 178.723 88.082C178.723 88.9961 178.566 89.7812 178.254 90.4375C177.949 91.0859 177.516 91.6289 176.953 92.0664C176.398 92.4961 175.746 92.8398 174.996 93.0977L173.883 93.6836H168.352L168.328 90.9414H172.441C173.059 90.9414 173.57 90.832 173.977 90.6133C174.383 90.3945 174.688 90.0898 174.891 89.6992C175.102 89.3086 175.207 88.8555 175.207 88.3398C175.207 87.793 175.105 87.3203 174.902 86.9219C174.699 86.5234 174.391 86.2188 173.977 86.0078C173.562 85.7969 173.043 85.6914 172.418 85.6914H169.57V100H166.055V82.9375ZM175.594 100L171.703 92.3945L175.418 92.3711L179.355 99.8359V100H175.594ZM188.355 82.9375V100H184.852V82.9375H188.355ZM193.605 82.9375V85.6914H179.684V82.9375H193.605ZM207.059 97.2578V100H197.977V97.2578H207.059ZM199.125 82.9375V100H195.609V82.9375H199.125ZM205.875 89.8867V92.5586H197.977V89.8867H205.875ZM207.047 82.9375V85.6914H197.977V82.9375H207.047ZM209.109 82.9375H215.473C216.777 82.9375 217.898 83.1328 218.836 83.5234C219.781 83.9141 220.508 84.4922 221.016 85.2578C221.523 86.0234 221.777 86.9648 221.777 88.082C221.777 88.9961 221.621 89.7812 221.309 90.4375C221.004 91.0859 220.57 91.6289 220.008 92.0664C219.453 92.4961 218.801 92.8398 218.051 93.0977L216.938 93.6836H211.406L211.383 90.9414H215.496C216.113 90.9414 216.625 90.832 217.031 90.6133C217.438 90.3945 217.742 90.0898 217.945 89.6992C218.156 89.3086 218.262 88.8555 218.262 88.3398C218.262 87.793 218.16 87.3203 217.957 86.9219C217.754 86.5234 217.445 86.2188 217.031 86.0078C216.617 85.7969 216.098 85.6914 215.473 85.6914H212.625V100H209.109V82.9375ZM218.648 100L214.758 92.3945L218.473 92.3711L222.41 99.8359V100H218.648ZM233.367 95.5352C233.367 95.2305 233.32 94.957 233.227 94.7148C233.141 94.4648 232.977 94.2383 232.734 94.0352C232.492 93.8242 232.152 93.6172 231.715 93.4141C231.277 93.2109 230.711 93 230.016 92.7812C229.242 92.5312 228.508 92.25 227.812 91.9375C227.125 91.625 226.516 91.2617 225.984 90.8477C225.461 90.4258 225.047 89.9375 224.742 89.3828C224.445 88.8281 224.297 88.1836 224.297 87.4492C224.297 86.7383 224.453 86.0938 224.766 85.5156C225.078 84.9297 225.516 84.4297 226.078 84.0156C226.641 83.5938 227.305 83.2695 228.07 83.043C228.844 82.8164 229.691 82.7031 230.613 82.7031C231.871 82.7031 232.969 82.9297 233.906 83.3828C234.844 83.8359 235.57 84.457 236.086 85.2461C236.609 86.0352 236.871 86.9375 236.871 87.9531H233.379C233.379 87.4531 233.273 87.0156 233.062 86.6406C232.859 86.2578 232.547 85.957 232.125 85.7383C231.711 85.5195 231.188 85.4102 230.555 85.4102C229.945 85.4102 229.438 85.5039 229.031 85.6914C228.625 85.8711 228.32 86.1172 228.117 86.4297C227.914 86.7344 227.812 87.0781 227.812 87.4609C227.812 87.75 227.883 88.0117 228.023 88.2461C228.172 88.4805 228.391 88.6992 228.68 88.9023C228.969 89.1055 229.324 89.2969 229.746 89.4766C230.168 89.6562 230.656 89.832 231.211 90.0039C232.141 90.2852 232.957 90.6016 233.66 90.9531C234.371 91.3047 234.965 91.6992 235.441 92.1367C235.918 92.5742 236.277 93.0703 236.52 93.625C236.762 94.1797 236.883 94.8086 236.883 95.5117C236.883 96.2539 236.738 96.918 236.449 97.5039C236.16 98.0898 235.742 98.5859 235.195 98.9922C234.648 99.3984 233.996 99.707 233.238 99.918C232.48 100.129 231.633 100.234 230.695 100.234C229.852 100.234 229.02 100.125 228.199 99.9062C227.379 99.6797 226.633 99.3398 225.961 98.8867C225.297 98.4336 224.766 97.8555 224.367 97.1523C223.969 96.4492 223.77 95.6172 223.77 94.6562H227.297C227.297 95.1875 227.379 95.6367 227.543 96.0039C227.707 96.3711 227.938 96.668 228.234 96.8945C228.539 97.1211 228.898 97.2852 229.312 97.3867C229.734 97.4883 230.195 97.5391 230.695 97.5391C231.305 97.5391 231.805 97.4531 232.195 97.2812C232.594 97.1094 232.887 96.8711 233.074 96.5664C233.27 96.2617 233.367 95.918 233.367 95.5352Z" fill="#7768CD"/>
<path d="M287.973 97.2578V100H278.891V97.2578H287.973ZM280.039 82.9375V100H276.523V82.9375H280.039ZM286.789 89.8867V92.5586H278.891V89.8867H286.789ZM287.961 82.9375V85.6914H278.891V82.9375H287.961ZM303.91 82.9375V100H300.395L293.539 88.5625V100H290.023V82.9375H293.539L300.406 94.3867V82.9375H303.91ZM314.246 82.9375V100H310.742V82.9375H314.246ZM319.496 82.9375V85.6914H305.574V82.9375H319.496ZM321.5 82.9375H327.863C329.168 82.9375 330.289 83.1328 331.227 83.5234C332.172 83.9141 332.898 84.4922 333.406 85.2578C333.914 86.0234 334.168 86.9648 334.168 88.082C334.168 88.9961 334.012 89.7812 333.699 90.4375C333.395 91.0859 332.961 91.6289 332.398 92.0664C331.844 92.4961 331.191 92.8398 330.441 93.0977L329.328 93.6836H323.797L323.773 90.9414H327.887C328.504 90.9414 329.016 90.832 329.422 90.6133C329.828 90.3945 330.133 90.0898 330.336 89.6992C330.547 89.3086 330.652 88.8555 330.652 88.3398C330.652 87.793 330.551 87.3203 330.348 86.9219C330.145 86.5234 329.836 86.2188 329.422 86.0078C329.008 85.7969 328.488 85.6914 327.863 85.6914H325.016V100H321.5V82.9375ZM331.039 100L327.148 92.3945L330.863 92.3711L334.801 99.8359V100H331.039ZM348.324 97.2578V100H339.242V97.2578H348.324ZM340.391 82.9375V100H336.875V82.9375H340.391ZM347.141 89.8867V92.5586H339.242V89.8867H347.141ZM348.312 82.9375V85.6914H339.242V82.9375H348.312ZM361.824 97.2578V100H352.742V97.2578H361.824ZM353.891 82.9375V100H350.375V82.9375H353.891ZM360.641 89.8867V92.5586H352.742V89.8867H360.641ZM361.812 82.9375V85.6914H352.742V82.9375H361.812ZM372.758 95.5352C372.758 95.2305 372.711 94.957 372.617 94.7148C372.531 94.4648 372.367 94.2383 372.125 94.0352C371.883 93.8242 371.543 93.6172 371.105 93.4141C370.668 93.2109 370.102 93 369.406 92.7812C368.633 92.5312 367.898 92.25 367.203 91.9375C366.516 91.625 365.906 91.2617 365.375 90.8477C364.852 90.4258 364.438 89.9375 364.133 89.3828C363.836 88.8281 363.688 88.1836 363.688 87.4492C363.688 86.7383 363.844 86.0938 364.156 85.5156C364.469 84.9297 364.906 84.4297 365.469 84.0156C366.031 83.5938 366.695 83.2695 367.461 83.043C368.234 82.8164 369.082 82.7031 370.004 82.7031C371.262 82.7031 372.359 82.9297 373.297 83.3828C374.234 83.8359 374.961 84.457 375.477 85.2461C376 86.0352 376.262 86.9375 376.262 87.9531H372.77C372.77 87.4531 372.664 87.0156 372.453 86.6406C372.25 86.2578 371.938 85.957 371.516 85.7383C371.102 85.5195 370.578 85.4102 369.945 85.4102C369.336 85.4102 368.828 85.5039 368.422 85.6914C368.016 85.8711 367.711 86.1172 367.508 86.4297C367.305 86.7344 367.203 87.0781 367.203 87.4609C367.203 87.75 367.273 88.0117 367.414 88.2461C367.562 88.4805 367.781 88.6992 368.07 88.9023C368.359 89.1055 368.715 89.2969 369.137 89.4766C369.559 89.6562 370.047 89.832 370.602 90.0039C371.531 90.2852 372.348 90.6016 373.051 90.9531C373.762 91.3047 374.355 91.6992 374.832 92.1367C375.309 92.5742 375.668 93.0703 375.91 93.625C376.152 94.1797 376.273 94.8086 376.273 95.5117C376.273 96.2539 376.129 96.918 375.84 97.5039C375.551 98.0898 375.133 98.5859 374.586 98.9922C374.039 99.3984 373.387 99.707 372.629 99.918C371.871 100.129 371.023 100.234 370.086 100.234C369.242 100.234 368.41 100.125 367.59 99.9062C366.77 99.6797 366.023 99.3398 365.352 98.8867C364.688 98.4336 364.156 97.8555 363.758 97.1523C363.359 96.4492 363.16 95.6172 363.16 94.6562H366.688C366.688 95.1875 366.77 95.6367 366.934 96.0039C367.098 96.3711 367.328 96.668 367.625 96.8945C367.93 97.1211 368.289 97.2852 368.703 97.3867C369.125 97.4883 369.586 97.5391 370.086 97.5391C370.695 97.5391 371.195 97.4531 371.586 97.2812C371.984 97.1094 372.277 96.8711 372.465 96.5664C372.66 96.2617 372.758 95.918 372.758 95.5352Z" fill="#7768CD"/>
<path d="M6.76172 100H3.04688L3.07031 97.2578H6.76172C7.68359 97.2578 8.46094 97.0508 9.09375 96.6367C9.72656 96.2148 10.2031 95.6016 10.5234 94.7969C10.8516 93.9922 11.0156 93.0195 11.0156 91.8789V91.0469C11.0156 90.1719 10.9219 89.4023 10.7344 88.7383C10.5547 88.0742 10.2852 87.5156 9.92578 87.0625C9.56641 86.6094 9.125 86.2695 8.60156 86.043C8.07812 85.8086 7.47656 85.6914 6.79688 85.6914H2.97656V82.9375H6.79688C7.9375 82.9375 8.98047 83.1328 9.92578 83.5234C10.8789 83.9062 11.7031 84.457 12.3984 85.1758C13.0938 85.8945 13.6289 86.7539 14.0039 87.7539C14.3867 88.7461 14.5781 89.8516 14.5781 91.0703V91.8789C14.5781 93.0898 14.3867 94.1953 14.0039 95.1953C13.6289 96.1953 13.0938 97.0547 12.3984 97.7734C11.7109 98.4844 10.8867 99.0352 9.92578 99.4258C8.97266 99.8086 7.91797 100 6.76172 100ZM5.03906 82.9375V100H1.52344V82.9375H5.03906ZM17.1328 82.9375H23.4961C24.8008 82.9375 25.9219 83.1328 26.8594 83.5234C27.8047 83.9141 28.5312 84.4922 29.0391 85.2578C29.5469 86.0234 29.8008 86.9648 29.8008 88.082C29.8008 88.9961 29.6445 89.7812 29.332 90.4375C29.0273 91.0859 28.5938 91.6289 28.0312 92.0664C27.4766 92.4961 26.8242 92.8398 26.0742 93.0977L24.9609 93.6836H19.4297L19.4062 90.9414H23.5195C24.1367 90.9414 24.6484 90.832 25.0547 90.6133C25.4609 90.3945 25.7656 90.0898 25.9688 89.6992C26.1797 89.3086 26.2852 88.8555 26.2852 88.3398C26.2852 87.793 26.1836 87.3203 25.9805 86.9219C25.7773 86.5234 25.4688 86.2188 25.0547 86.0078C24.6406 85.7969 24.1211 85.6914 23.4961 85.6914H20.6484V100H17.1328V82.9375ZM26.6719 100L22.7812 92.3945L26.4961 92.3711L30.4336 99.8359V100H26.6719ZM36.2461 82.9375V100H32.7422V82.9375H36.2461ZM53.4258 82.9375V100H49.9102L43.0547 88.5625V100H39.5391V82.9375H43.0547L49.9219 94.3867V82.9375H53.4258ZM60 82.9375V100H56.4844V82.9375H60ZM70.2188 82.9375L63.457 91.3633L59.5547 95.5586L58.9219 92.2305L61.5586 88.6211L65.9062 82.9375H70.2188ZM66.2227 100L61.1953 92.1133L63.7969 89.9336L70.3828 100H66.2227ZM80.625 95.5352C80.625 95.2305 80.5781 94.957 80.4844 94.7148C80.3984 94.4648 80.2344 94.2383 79.9922 94.0352C79.75 93.8242 79.4102 93.6172 78.9727 93.4141C78.5352 93.2109 77.9688 93 77.2734 92.7812C76.5 92.5312 75.7656 92.25 75.0703 91.9375C74.3828 91.625 73.7734 91.2617 73.2422 90.8477C72.7188 90.4258 72.3047 89.9375 72 89.3828C71.7031 88.8281 71.5547 88.1836 71.5547 87.4492C71.5547 86.7383 71.7109 86.0938 72.0234 85.5156C72.3359 84.9297 72.7734 84.4297 73.3359 84.0156C73.8984 83.5938 74.5625 83.2695 75.3281 83.043C76.1016 82.8164 76.9492 82.7031 77.8711 82.7031C79.1289 82.7031 80.2266 82.9297 81.1641 83.3828C82.1016 83.8359 82.8281 84.457 83.3438 85.2461C83.8672 86.0352 84.1289 86.9375 84.1289 87.9531H80.6367C80.6367 87.4531 80.5312 87.0156 80.3203 86.6406C80.1172 86.2578 79.8047 85.957 79.3828 85.7383C78.9688 85.5195 78.4453 85.4102 77.8125 85.4102C77.2031 85.4102 76.6953 85.5039 76.2891 85.6914C75.8828 85.8711 75.5781 86.1172 75.375 86.4297C75.1719 86.7344 75.0703 87.0781 75.0703 87.4609C75.0703 87.75 75.1406 88.0117 75.2812 88.2461C75.4297 88.4805 75.6484 88.6992 75.9375 88.9023C76.2266 89.1055 76.582 89.2969 77.0039 89.4766C77.4258 89.6562 77.9141 89.832 78.4688 90.0039C79.3984 90.2852 80.2148 90.6016 80.918 90.9531C81.6289 91.3047 82.2227 91.6992 82.6992 92.1367C83.1758 92.5742 83.5352 93.0703 83.7773 93.625C84.0195 94.1797 84.1406 94.8086 84.1406 95.5117C84.1406 96.2539 83.9961 96.918 83.707 97.5039C83.418 98.0898 83 98.5859 82.4531 98.9922C81.9062 99.3984 81.2539 99.707 80.4961 99.918C79.7383 100.129 78.8906 100.234 77.9531 100.234C77.1094 100.234 76.2773 100.125 75.457 99.9062C74.6367 99.6797 73.8906 99.3398 73.2188 98.8867C72.5547 98.4336 72.0234 97.8555 71.625 97.1523C71.2266 96.4492 71.0273 95.6172 71.0273 94.6562H74.5547C74.5547 95.1875 74.6367 95.6367 74.8008 96.0039C74.9648 96.3711 75.1953 96.668 75.4922 96.8945C75.7969 97.1211 76.1562 97.2852 76.5703 97.3867C76.9922 97.4883 77.4531 97.5391 77.9531 97.5391C78.5625 97.5391 79.0625 97.4531 79.4531 97.2812C79.8516 97.1094 80.1445 96.8711 80.332 96.5664C80.5273 96.2617 80.625 95.918 80.625 95.5352Z" fill="#7768CD"/>
<g clip-path="url(#clip0_244_5187)">
<path d="M175.389 69.5735C174.182 69.577 172.977 69.5198 171.776 69.402C166.529 68.8705 162.888 67.6359 159.59 65.2753C154.664 61.7544 152.772 55.7186 152.057 51.2718L152 50.9403H152.343C160.156 51.0547 168.107 51.0147 175.777 50.9746C182.968 50.9403 190.398 50.9003 197.703 50.9746H198V51.2661C197.891 55.5673 196.119 59.6586 193.056 62.6804C190.718 65.0752 186.974 68.1103 182.402 68.9676C180.087 69.3798 177.74 69.5826 175.389 69.5735ZM152.674 51.5176C153.417 55.8158 155.281 61.4915 159.928 64.8123C163.134 67.0986 166.695 68.3103 171.833 68.8133C175.324 69.131 178.84 68.9888 182.293 68.3903C186.723 67.5444 190.369 64.578 192.644 62.246C195.525 59.4109 197.233 55.595 197.428 51.5576C190.221 51.4776 182.893 51.5119 175.806 51.5576C168.221 51.5862 160.391 51.6262 152.674 51.5176Z" fill="#7768CD"/>
<path d="M182.167 51.4891L182.493 51.0318C182.533 50.9804 186.631 45.3161 189.118 42.5726C190.518 41.0522 192.107 39.3261 194.13 38.3544C195.016 37.9314 195.742 37.8914 196.291 38.2286C196.56 38.4211 196.774 38.6807 196.911 38.9815C197.049 39.2824 197.105 39.614 197.074 39.9433C197.074 41.5094 195.931 42.7498 194.788 43.8872L187.106 51.4891H182.167ZM195.456 38.5716C195.08 38.5919 194.713 38.6954 194.382 38.8745C192.45 39.7947 190.907 41.4752 189.541 42.9612C187.483 45.2018 184.311 49.5057 183.288 50.9118H186.86L194.376 43.4814C195.439 42.4297 196.485 41.2866 196.502 39.9319C196.521 39.7059 196.484 39.4787 196.394 39.2704C196.305 39.0621 196.165 38.879 195.988 38.7373C195.83 38.6326 195.646 38.5751 195.456 38.5716Z" fill="#7768CD"/>
<path d="M183.802 65.2696C183.754 65.27 183.707 65.2545 183.669 65.2256C183.631 65.1966 183.603 65.1558 183.591 65.1095C183.577 65.0542 183.585 64.9956 183.614 64.9464C183.643 64.8972 183.69 64.8614 183.745 64.8466C185.972 64.2059 187.994 62.9987 189.615 61.3429C191.241 59.6811 192.642 57.8133 193.782 55.7872C193.811 55.7387 193.857 55.7036 193.912 55.6897C193.967 55.6758 194.025 55.6841 194.073 55.7129C194.122 55.7417 194.157 55.7886 194.171 55.8433C194.185 55.898 194.176 55.9559 194.148 56.0044C192.992 58.0658 191.567 59.9647 189.912 61.6515C188.239 63.3588 186.151 64.6034 183.854 65.2639L183.802 65.2696Z" fill="#7768CD"/>
<path d="M178.915 66.207C178.86 66.2055 178.807 66.1828 178.767 66.1435C178.728 66.1041 178.705 66.0511 178.704 65.9955C178.703 65.9673 178.708 65.9392 178.718 65.9128C178.728 65.8865 178.744 65.8625 178.764 65.8423C178.783 65.822 178.807 65.8059 178.833 65.795C178.859 65.784 178.887 65.7783 178.915 65.7783C179.887 65.7565 180.851 65.5889 181.773 65.2811C181.8 65.2712 181.828 65.2668 181.856 65.268C181.885 65.2693 181.913 65.2763 181.938 65.2886C181.964 65.3008 181.987 65.3181 182.005 65.3394C182.024 65.3607 182.038 65.3856 182.047 65.4125C182.066 65.4671 182.061 65.5266 182.036 65.578C182.01 65.6295 181.965 65.6686 181.91 65.6869C180.946 66.0107 179.938 66.186 178.921 66.207H178.915Z" fill="#7768CD"/>
<path d="M175.96 72.9172C173.88 72.9172 171.799 72.9172 169.736 72.8772C169.406 72.8939 169.076 72.8474 168.764 72.74C168.546 72.637 168.37 72.4612 168.267 72.2427C168.113 71.9512 167.878 71.3453 167.61 70.6366C167.347 69.8819 167.032 69.1466 166.666 68.4361L166.284 67.8645L166.964 68.0074C170.679 68.8019 178.458 69.7221 184.111 68.0074L184.579 67.8702L184.471 68.3446C184.408 68.619 184.168 69.4363 183.899 70.2994C183.631 71.1625 183.408 71.9626 183.328 72.2141C183.307 72.358 183.244 72.4927 183.148 72.6014C183.051 72.7101 182.925 72.7881 182.785 72.8257C182.623 72.869 182.455 72.8882 182.287 72.8829C180.207 72.9057 178.081 72.9172 175.96 72.9172ZM167.432 68.6761C167.65 69.1505 167.895 69.8193 168.141 70.4308C168.327 70.9555 168.538 71.4706 168.776 71.9741C168.795 72.0271 168.824 72.0757 168.862 72.1169C168.901 72.1582 168.947 72.1912 168.998 72.2141C169.239 72.2894 169.49 72.3204 169.742 72.3056C173.908 72.3628 178.138 72.3628 182.316 72.3056C182.433 72.3087 182.55 72.2991 182.665 72.277C182.756 72.277 182.779 72.2141 182.808 72.0827C182.87 71.814 183.111 70.9967 183.379 70.1336C183.534 69.6078 183.694 69.0705 183.802 68.6876C178.367 70.1393 171.268 69.4192 167.432 68.6761Z" fill="#7768CD"/>
<path d="M197.405 53.1637H152.932V53.7353H197.405V53.1637Z" fill="#7768CD"/>
<path d="M187.752 48.4997C187.718 48.4995 187.686 48.4917 187.656 48.4768C187.626 48.462 187.6 48.4404 187.58 48.414C187.547 48.3679 187.533 48.3109 187.54 48.2546C187.548 48.1983 187.576 48.147 187.62 48.1111C190.479 45.8821 193.096 43.359 195.428 40.5835C195.446 40.5625 195.469 40.5453 195.494 40.5329C195.519 40.5205 195.546 40.5132 195.574 40.5113C195.602 40.5095 195.63 40.5131 195.656 40.5221C195.682 40.531 195.707 40.5451 195.728 40.5635C195.749 40.5819 195.766 40.6042 195.779 40.6292C195.791 40.6543 195.798 40.6815 195.8 40.7094C195.802 40.7372 195.798 40.7652 195.789 40.7917C195.78 40.8181 195.766 40.8426 195.748 40.8636C193.4 43.6626 190.764 46.2068 187.883 48.454C187.845 48.4825 187.799 48.4985 187.752 48.4997Z" fill="#7768CD"/>
</g>
<g clip-path="url(#clip1_244_5187)">
<path d="M36.751 72.0569L34.2016 71.3398L39.2648 40.8461H31.9901L30.6443 37.983H42.2352L36.751 72.0569ZM34.9012 70.9275L36.2292 71.3002L41.4704 38.6268H31.6166L32.4229 40.2418H40.0118L34.9012 70.9275Z" fill="#7768CD"/>
<path d="M45.6324 73H31.2134L28.7708 53.0209L37.3142 52.9927V53.6026L29.4822 53.6252L31.7767 72.3957H45.0692L47.5296 53.5744L39.6502 53.5969V52.9871L48.253 52.9645L45.6324 73Z" fill="#7768CD"/>
<path d="M45.7095 72.9943H31.2372L28.0119 47.165H49.0237L45.7095 72.9943ZM31.7885 72.3845H45.1463L48.2826 47.7749H28.7174L31.7885 72.3845Z" fill="#7768CD"/>
<path d="M41.5652 59.4021L40.1304 59.0238C39.9005 58.9606 39.7058 58.8139 39.5883 58.6153C39.4708 58.4168 39.4398 58.1822 39.502 57.9621L40.1779 55.6525C40.2429 55.4339 40.3958 55.2486 40.6033 55.1365C40.8108 55.0245 41.0563 54.9948 41.2866 55.0539L43.7115 55.6977C43.9418 55.7583 44.1375 55.9037 44.2553 56.1017C44.3732 56.2997 44.4036 56.5343 44.3399 56.7537L43.8656 58.3857L43.4565 58.2784L43.9308 56.6464C43.9488 56.5885 43.9545 56.5279 43.9474 56.4679C43.9404 56.408 43.9209 56.35 43.8899 56.2973C43.859 56.2447 43.8173 56.1985 43.7673 56.1615C43.7173 56.1244 43.66 56.0973 43.5988 56.0817L41.1739 55.4379C41.0505 55.4066 40.9192 55.4229 40.8082 55.4831C40.6973 55.5434 40.6157 55.6427 40.581 55.7598L39.9051 58.0694C39.8723 58.187 39.8894 58.3121 39.9526 58.4177C40.0158 58.5234 40.1202 58.6011 40.2431 58.6341L41.6719 59.0125L41.5652 59.4021Z" fill="#7768CD"/>
<path d="M41.1561 69.9958C41.0782 69.9947 41.0006 69.9853 40.9249 69.9676L38.6957 69.4029C38.5881 69.3761 38.4875 69.3287 38.3998 69.2636C38.3122 69.1986 38.2393 69.1172 38.1858 69.0245C38.0738 68.8378 38.0439 68.6165 38.1028 68.409L38.7253 66.2857C38.7543 66.1829 38.8043 66.0866 38.8724 66.0023C38.9406 65.918 39.0256 65.8473 39.1225 65.7944C39.3199 65.6914 39.5515 65.6651 39.7688 65.721L41.998 66.2857C42.1055 66.3125 42.2062 66.3598 42.2939 66.4249C42.3815 66.4899 42.4544 66.5713 42.5079 66.664C42.5637 66.7564 42.5997 66.8583 42.614 66.9639C42.6282 67.0696 42.6204 67.1768 42.5909 67.2796L41.998 69.4029C41.969 69.5049 41.9189 69.6003 41.8507 69.6837C41.7825 69.7671 41.6975 69.8367 41.6008 69.8885C41.4665 69.9642 41.3121 70.0015 41.1561 69.9958ZM41.0376 69.5779C41.1476 69.6049 41.2642 69.5907 41.3636 69.5384C41.4596 69.4848 41.5298 69.3977 41.5593 69.2956L42.1522 67.1666C42.1802 67.0637 42.1653 66.9545 42.1107 66.8617C42.0544 66.7703 41.963 66.7035 41.8557 66.6754L39.6265 66.1107C39.5721 66.0961 39.5153 66.0921 39.4592 66.0989C39.4032 66.1057 39.3492 66.1231 39.3004 66.1502C39.2523 66.176 39.2101 66.2108 39.1765 66.2525C39.1429 66.2942 39.1185 66.342 39.1047 66.393L38.5119 68.4767C38.4827 68.5801 38.4975 68.6902 38.553 68.7832C38.6084 68.8762 38.7002 68.9447 38.8083 68.9737L41.0376 69.5779Z" fill="#7768CD"/>
<path d="M33.1285 62.1861C32.99 62.1865 32.8551 62.145 32.7431 62.0675L31.3083 61.1357C31.1574 61.0383 31.0533 60.8879 31.0189 60.7174C30.9844 60.5469 31.0224 60.3704 31.1245 60.2266L32.0968 58.86C32.1991 58.7163 32.3571 58.6172 32.5361 58.5843C32.7151 58.5515 32.9004 58.5877 33.0514 58.6849L34.4862 59.611C34.637 59.7085 34.7411 59.8589 34.7756 60.0294C34.8101 60.1999 34.7721 60.3764 34.67 60.5202L33.6976 61.8925C33.6473 61.9633 33.5825 62.0239 33.5072 62.0704C33.4318 62.117 33.3474 62.1486 33.2589 62.1635L33.1285 62.1861ZM32.666 58.9842C32.6233 58.9849 32.5812 58.9949 32.5432 59.0135C32.5052 59.0321 32.4721 59.0588 32.4466 59.0915L31.4743 60.4581C31.4544 60.4859 31.4405 60.5172 31.4333 60.5501C31.4262 60.5831 31.426 60.6171 31.4328 60.6501C31.4473 60.7148 31.4877 60.7715 31.5455 60.8082L32.9802 61.7343C33.0085 61.7528 33.0404 61.7659 33.0739 61.7726C33.1075 61.7794 33.1421 61.7798 33.1759 61.7739C33.2107 61.768 33.2439 61.7555 33.2734 61.737C33.303 61.7186 33.3283 61.6946 33.3478 61.6666L34.3202 60.3C34.3586 60.2453 34.3727 60.1783 34.3594 60.1137C34.3461 60.0492 34.3064 59.9922 34.249 59.9555L32.8142 59.0238C32.77 58.997 32.7184 58.9833 32.666 58.9842Z" fill="#7768CD"/>
<path d="M43.5692 62.1295C43.4258 62.1301 43.2848 62.095 43.1601 62.0279L41.251 60.9775C41.1575 60.9268 41.0758 60.8586 41.0106 60.7771C40.9454 60.6956 40.8981 60.6025 40.8716 60.5032C40.8202 60.3119 40.85 60.109 40.9546 59.9385L42.0514 58.1201C42.1615 57.942 42.341 57.8125 42.5507 57.7596C42.7605 57.7068 42.9838 57.7348 43.172 57.8378L45.081 58.8881C45.174 58.939 45.2555 59.0069 45.3208 59.0879C45.3861 59.1689 45.4339 59.2614 45.4614 59.3601C45.489 59.4588 45.4958 59.5617 45.4814 59.6629C45.4669 59.7641 45.4316 59.8616 45.3775 59.9498L44.2806 61.7399C44.2286 61.8287 44.1581 61.9066 44.0735 61.9687C43.989 62.0308 43.892 62.0759 43.7886 62.1013C43.7176 62.1223 43.6434 62.1318 43.5692 62.1295ZM43.3735 61.6777C43.4177 61.7028 43.4669 61.7188 43.518 61.7246C43.569 61.7305 43.6208 61.726 43.67 61.7116C43.7205 61.7007 43.7679 61.6793 43.8089 61.6491C43.8498 61.6188 43.8834 61.5804 43.9071 61.5366L45.0158 59.7182C45.0658 59.6321 45.0785 59.5308 45.0514 59.4359C45.0392 59.388 45.0165 59.3432 44.9848 59.3043C44.9531 59.2654 44.9132 59.2332 44.8676 59.21L42.9585 58.1597C42.9138 58.1344 42.8644 58.1179 42.8129 58.111C42.7615 58.1042 42.7091 58.1071 42.6589 58.1197C42.6087 58.1324 42.5616 58.1544 42.5204 58.1845C42.4792 58.2146 42.4447 58.2522 42.419 58.2952L41.3162 60.1135C41.2663 60.1997 41.2535 60.3009 41.2806 60.3959C41.2928 60.4445 41.3154 60.4901 41.3471 60.53C41.3787 60.5698 41.4187 60.603 41.4644 60.6274L43.3735 61.6777Z" fill="#7768CD"/>
</g>
<defs>
<clipPath id="clip0_244_5187">
<rect width="46.0113" height="34.9172" fill="white" transform="translate(152 38)"/>
</clipPath>
<clipPath id="clip1_244_5187">
<rect width="21" height="35" fill="white" transform="translate(28 38)"/>
</clipPath>
</defs>
</svg>
