<svg width="39" height="41" viewBox="0 0 39 41" fill="none" xmlns="http://www.w3.org/2000/svg">
<g clip-path="url(#clip0_459_216)">
<path d="M5.15528 32.7903C5.0391 32.7351 4.93886 32.6512 4.86396 32.5467C4.78905 32.4421 4.74193 32.3202 4.72702 32.1924C4.67854 31.954 4.39977 31.756 4.20584 31.554C3.68062 31.0086 3.11903 30.4955 2.614 29.938C2.13916 29.4288 1.80136 28.8074 1.63223 28.132C1.51103 27.6229 1.22821 27.1623 1.14741 26.629C1.10235 26.4519 1.01968 26.2865 0.905003 26.1442C0.520597 25.5592 0.369228 24.8515 0.480761 24.1605C0.49892 23.8125 0.384924 23.4704 0.161594 23.2029C0.0537956 23.0677 -0.00287963 22.8987 0.00155399 22.7258C0.0059876 22.5529 0.0712453 22.3871 0.185834 22.2575C0.465188 21.8101 0.605772 21.2899 0.589855 20.7626C0.622176 20.092 0.775717 19.4294 0.880762 18.7425C0.770238 18.6411 0.648188 18.553 0.517134 18.4799C0.402429 18.4354 0.309169 18.3486 0.256557 18.2373C0.203946 18.1261 0.195982 17.9989 0.234315 17.882C0.311079 17.4457 0.379765 17.0093 0.464609 16.577C0.573695 16.0275 0.67065 15.474 0.808017 14.9326C0.913062 14.5286 1.07063 14.1246 1.21204 13.7206C1.39385 13.2115 1.54738 12.6903 1.77363 12.2014C2.12824 11.4094 2.55565 10.652 3.05035 9.93894C3.40589 9.45008 3.70081 8.91678 4.02403 8.40367C4.05822 8.32844 4.09735 8.25557 4.14119 8.18551C4.63409 7.66432 5.15126 7.16736 5.62396 6.62597C6.23295 5.98787 6.87772 5.38492 7.55517 4.82001C8.79596 3.66302 10.2112 2.70862 11.7489 1.99187C12.6653 1.55443 13.6102 1.17918 14.577 0.868682C15.4057 0.588975 16.2639 0.405962 17.1345 0.323265C17.8173 0.282862 18.492 0.109121 19.1748 0.032357C19.554 0.00207241 19.935 0.00207241 20.3141 0.032357C21.207 0.0848796 22.0999 0.129339 22.9888 0.226304C23.6782 0.302504 24.3623 0.421245 25.0371 0.581843C25.7939 0.73585 26.5381 0.946534 27.2633 1.21211C27.7987 1.49208 28.3192 1.79953 28.8228 2.13327C29.3682 2.42012 29.946 2.63831 30.5035 2.90496C30.9662 3.11065 31.4121 3.35245 31.8368 3.62815C32.4671 4.06853 33.0489 4.58163 33.6509 5.05837C33.9753 5.33419 34.2393 5.67391 34.4266 6.05631C34.5861 6.35699 34.8112 6.61796 35.0851 6.81992C35.7711 7.33075 36.3526 7.96851 36.7982 8.6986C37.3805 9.61328 37.7912 10.6264 38.0102 11.6884C38.0256 11.7346 38.0378 11.7818 38.0466 11.8298C38.0531 12.5497 38.2466 13.2556 38.6082 13.8781C38.8841 14.532 38.9668 15.2513 38.8466 15.9508C38.79 16.6336 38.7254 17.3123 38.6971 17.9951C38.6922 18.1521 38.656 18.3065 38.5908 18.4494C38.5256 18.5923 38.4326 18.7208 38.3173 18.8274C38.2135 18.6186 38.0772 18.4276 37.9133 18.2618C37.6789 18.0921 37.7597 17.8981 37.7557 17.6921C37.7557 17.4093 37.5052 17.2881 37.3113 17.1507C37.2547 17.1103 37.0689 17.179 36.9921 17.2517C36.8934 17.378 36.8069 17.5132 36.7335 17.6557L35.978 18.8233C35.4851 18.6739 35.3316 18.286 35.1377 17.9507C34.7937 17.3933 34.4808 16.8174 34.2003 16.2255C33.7972 15.4558 33.3394 14.7159 32.8307 14.0115C32.2765 13.2398 31.6705 12.5069 31.0166 11.8176C30.5117 11.2285 29.972 10.6699 29.4006 10.145C29.1172 9.91999 28.8159 9.71865 28.4996 9.54301C27.9703 9.18748 27.437 8.83194 26.9158 8.46024C26.637 8.25485 26.3256 8.09778 25.9947 7.99561C25.3531 7.80062 24.7373 7.52933 24.1604 7.18757C23.9342 7.05424 23.6796 6.96941 23.4453 6.84416C22.6898 6.44014 21.8656 6.44013 21.0454 6.38357C20.6174 6.36795 20.1916 6.31522 19.7727 6.226C19.2314 6.10075 18.7385 6.31084 18.2213 6.3472C17.7042 6.38356 17.2719 6.45629 16.7992 6.52901C16.3265 6.60174 15.9265 6.66638 15.4901 6.75526C15.1333 6.81922 14.78 6.90147 14.4316 7.00171C13.3482 7.34991 12.3147 7.83749 11.357 8.45215C11.1914 8.55316 10.9974 8.60163 10.8237 8.69456C10.0413 9.12465 9.34105 9.68953 8.75512 10.3632C8.14505 11.0379 7.54306 11.7328 7.01379 12.46C6.43901 13.227 5.99027 14.0808 5.68455 14.9892C5.51486 15.4902 5.23609 15.9346 5.25629 16.5043C5.25629 16.7628 5.02601 17.0295 4.91692 17.3123C4.85506 17.4451 4.82331 17.59 4.82398 17.7365C4.8748 18.2774 4.83937 18.8229 4.71896 19.3526C4.55064 20.108 4.48272 20.8824 4.51695 21.6555C4.5736 22.6902 4.77067 23.7123 5.10276 24.6938C5.25993 25.1362 5.43928 25.5704 5.64011 25.9947C5.90022 26.4655 6.10235 26.9661 6.2421 27.4855C6.29457 27.6402 6.38149 27.7809 6.49626 27.8971C6.61104 28.0133 6.75069 28.1019 6.9047 28.1562C7.04822 28.2309 7.18361 28.3203 7.30872 28.4229C7.55476 28.6305 7.81386 28.8221 8.08443 28.9966C8.18456 29.0529 8.27004 29.1319 8.33391 29.2274C8.39779 29.3229 8.43828 29.432 8.4521 29.5461C8.48049 29.681 8.54291 29.8063 8.63342 29.9103C8.72394 30.0142 8.83954 30.0933 8.96924 30.14C9.03658 30.1675 9.09754 30.2086 9.14829 30.2607C9.19904 30.3129 9.23849 30.3749 9.26419 30.443C9.33991 30.6199 9.45289 30.7784 9.59546 30.9076C10.149 31.3399 10.7186 31.7561 11.2924 32.1682C11.6389 32.4208 12.0314 32.6033 12.4478 32.7055C13.0983 32.8671 13.7326 33.1095 14.371 33.3115C14.4196 33.321 14.4653 33.3417 14.5043 33.3721C14.9851 33.9176 15.672 33.7115 16.2578 33.8691C16.5358 33.9114 16.8073 33.9888 17.0658 34.0994C17.2177 34.1905 17.329 34.3362 17.3771 34.5066C17.4251 34.6771 17.4063 34.8595 17.3244 35.0165L18.0435 35.2953C18.5666 35.1512 19.1228 35.1868 19.6233 35.3963C20.3122 35.6933 21.0849 35.7335 21.8009 35.5094C21.8967 35.4722 21.9747 35.4 22.0191 35.3074C21.91 35.2791 21.7848 35.2024 21.6918 35.2266C21.3403 35.307 20.9726 35.2788 20.6374 35.1458C19.9303 34.9478 19.191 34.8549 18.4597 34.7175C18.5198 34.6207 18.6069 34.5435 18.7102 34.4954C18.8136 34.4474 18.9287 34.4305 19.0415 34.4468L21.3605 34.5559C21.4082 34.5434 21.4583 34.5434 21.506 34.5559C22.0918 34.9599 22.8312 34.8832 23.4413 35.1943C23.4978 35.2225 23.5827 35.2306 23.6069 35.271C23.7483 35.5296 23.9584 35.4044 24.1321 35.3559C24.3059 35.3074 24.5361 35.1741 24.7705 35.1135C25.2522 34.9725 25.716 34.7759 26.1522 34.5276C26.726 34.2206 27.3643 34.0145 27.942 33.7196C28.545 33.4384 29.1305 33.1214 29.6955 32.7701C30.0136 32.517 30.3096 32.2372 30.5803 31.9338C30.9156 31.6268 31.2631 31.3278 31.6065 31.0288C32.3983 30.3478 33.0906 29.559 33.663 28.6855C33.8135 28.4511 34.0212 28.2588 34.2664 28.1267C34.5116 27.9945 34.7864 27.9269 35.0649 27.93C35.058 28.0672 35.0335 28.203 34.9922 28.334C34.581 29.2501 33.9902 30.0743 33.2549 30.7581C32.5188 31.4626 31.8655 32.2488 31.3075 33.1014C31.8277 32.9572 32.313 32.7084 32.7337 32.3702C33.8812 31.3211 34.8095 30.055 35.4649 28.6451C35.776 27.9946 36.0952 27.3482 36.374 26.6856C36.5298 26.2711 36.6647 25.8491 36.778 25.421C36.8911 25.0574 36.9881 24.6897 37.1093 24.3342C37.1832 24.1911 37.2711 24.0558 37.3719 23.9302C37.4446 24.0554 37.5335 24.1403 37.5214 24.2089C37.5241 24.6493 37.4559 25.0872 37.3194 25.5059C37.1477 25.9143 37.0046 26.3341 36.8911 26.7624C36.5038 27.875 35.9843 28.9371 35.3437 29.9258C34.9397 30.5804 34.5033 31.2308 34.0589 31.8692C33.3028 32.9095 32.3864 33.8231 31.3439 34.5761C30.7459 35.0286 30.2328 35.5862 29.6793 36.0993L29.7238 36.1922C29.8086 36.1922 29.9137 36.2326 29.9823 36.1922C30.4551 35.9498 30.8712 36.1639 31.3197 36.3578C31.3713 36.5459 31.3777 36.7435 31.3384 36.9345C31.299 37.1254 31.2151 37.3044 31.0934 37.4568C31.0349 37.533 30.9596 37.5949 30.8735 37.6376C30.7874 37.6803 30.6926 37.7028 30.5965 37.7032C30.2328 37.675 30.043 37.9658 29.7561 38.0668C29.613 38.1123 29.484 38.1938 29.3814 38.3035C29.2788 38.4131 29.2061 38.5473 29.1703 38.6931C29.1703 38.7577 29.0571 38.8062 28.9965 38.8587C28.7986 39.0325 28.5925 39.186 28.4067 39.3718C28.1197 39.6223 27.7756 39.7985 27.4047 39.8849C27.0492 39.9981 26.6694 40.0667 26.33 40.2122C25.473 40.5946 24.5553 40.823 23.619 40.8869C23.1059 40.9233 22.5969 40.9879 22.0878 41.0364C21.9646 41.0297 21.8418 41.0162 21.7201 40.996C22.8514 40.4263 24.0311 40.394 25.0897 39.9334C24.6331 39.9981 24.1766 40.0546 23.72 40.1354C23.2635 40.2162 22.7867 40.3657 22.31 40.4061C21.9664 40.4085 21.624 40.365 21.2919 40.2768C21.0751 40.2 20.8538 40.1366 20.6293 40.0869C20.0192 40.0385 19.4172 40.0304 18.7991 40.0061C18.7506 40.0061 18.69 40.0385 18.6536 40.0061C18.0233 39.6546 17.2638 39.6021 16.6618 39.1658C16.2863 38.9298 15.8917 38.7257 15.482 38.5557C15.4193 38.5187 15.3586 38.4782 15.3002 38.4345C15.4453 38.3341 15.6141 38.2734 15.7899 38.2585C15.9657 38.2437 16.1423 38.2751 16.3022 38.3497C16.4234 38.3941 16.5487 38.4426 16.6658 38.4991C17.5345 38.9032 18.4718 38.8183 19.3889 38.8749C19.4831 38.8789 19.5761 38.8534 19.655 38.8019C19.734 38.7505 19.7949 38.6758 19.8293 38.588C19.7532 38.4917 19.6562 38.414 19.5456 38.3608C19.435 38.3076 19.3137 38.2803 19.191 38.281C18.3829 38.2163 17.5749 38.1638 16.7668 38.0709C16.2416 38.0103 15.7285 37.881 15.2073 37.7881C15.0013 37.7557 14.8033 37.7436 14.4639 37.7073L14.8437 38.1113C14.8074 38.1517 14.7871 38.2042 14.7508 38.2163C14.6144 38.2915 14.4639 38.3375 14.3088 38.3514C14.1537 38.3653 13.9974 38.3469 13.8498 38.2971C13.5977 38.2183 13.3375 38.1682 13.0741 38.1477C12.9622 38.1131 12.8425 38.1131 12.7307 38.1477C12.1893 38.4911 11.7449 38.1476 11.3126 37.9335C10.6109 37.6001 9.93556 37.2138 9.29245 36.778C8.84907 36.441 8.45475 36.044 8.1208 35.5983C7.99774 35.4158 7.83781 35.2611 7.65131 35.1442C7.46482 35.0273 7.25591 34.9508 7.03803 34.9195C6.45176 34.8236 5.87654 34.6693 5.32094 34.4589C4.79976 34.2771 4.66237 33.6509 4.97347 33.0934C5.02781 32.9887 5.08853 32.8875 5.15528 32.7903ZM32.5721 9.09456C32.4388 9.36929 32.4388 9.36929 32.5519 9.64806L32.5721 9.09456ZM31.7398 9.01779L31.7681 8.89255L31.5096 8.86828V8.94103L31.7398 9.01779Z" fill="#ED3E24"/>
<path d="M18.6173 14.0963C18.7189 13.7996 18.8039 13.4974 18.8718 13.1913C18.9307 12.9405 18.9098 12.6776 18.812 12.4393C18.7142 12.201 18.5444 11.9992 18.3264 11.8621C17.7948 11.442 17.3629 10.9094 17.0618 10.3025C17.0549 10.2624 17.0549 10.2214 17.0618 10.1813C17.3648 9.7773 17.8213 9.90256 18.185 9.97529C19.1948 10.164 20.0949 10.7303 20.702 11.559C20.8534 11.774 20.9403 12.0277 20.9525 12.2903C20.9808 12.763 20.9283 13.2357 20.9121 13.7084C21.5166 13.8675 22.1452 13.9141 22.7666 13.8458C23.5423 13.8458 24.314 13.7367 25.0856 13.7408C25.6268 13.736 26.1644 13.8277 26.6734 14.0114C26.7058 14.0114 26.734 14.0478 26.7663 14.0478C27.3945 14.0612 28.0013 14.2781 28.4956 14.666C29.1864 15.1306 29.7076 15.7245 29.6591 16.6335C29.6591 16.876 29.6591 17.1184 29.6309 17.3648C28.0148 17.6799 26.427 17.9749 24.8675 18.3789C24.8844 18.1425 24.9602 17.914 25.0879 17.7144C25.2156 17.5147 25.3912 17.3501 25.5987 17.2355C25.8856 17.0537 26.1563 16.8315 26.4068 16.6416C26.5432 16.5308 26.6666 16.4047 26.7744 16.2659C26.8702 16.1359 26.9592 16.001 27.0411 15.8619C26.9932 15.7362 26.9118 15.626 26.8056 15.5433C26.6995 15.4607 26.5727 15.4088 26.4391 15.3932C25.2006 15.0859 23.9167 15.0051 22.6494 15.1548C21.7525 15.2558 20.8394 15.2558 19.9344 15.3043C19.7992 15.2926 19.6631 15.3007 19.5304 15.3286C18.9558 15.4727 18.3652 15.5433 17.7729 15.5386C17.1022 15.5992 16.4275 15.6679 15.7528 15.7568C15.4718 15.7801 15.1993 15.8644 14.9543 16.004C14.7094 16.1436 14.4979 16.335 14.3347 16.5649C14.1044 16.9042 13.866 17.2396 13.6317 17.5749C13.3607 18.0389 12.9297 18.3879 12.4196 18.5567C12.1563 18.6283 11.8844 18.6637 11.6116 18.6617C11.2318 18.6617 11.0823 18.3951 11.159 18.0112C11.3227 17.4429 11.5883 16.909 11.9428 16.4356C12.3778 15.7661 12.8919 15.1516 13.4741 14.6053C13.6056 14.4571 13.722 14.296 13.8215 14.1246C13.8474 14.0713 13.8846 14.0245 13.9306 13.9872C13.9766 13.95 14.0301 13.9233 14.0876 13.909C14.145 13.8948 14.2048 13.8933 14.2629 13.9047C14.321 13.9161 14.3758 13.9401 14.4235 13.9751C14.643 14.0848 14.8549 14.209 15.0578 14.3468C15.2733 14.5026 15.5358 14.5796 15.8013 14.565C15.9664 14.5467 16.133 14.5467 16.2982 14.565C16.9406 14.6619 17.5102 14.3831 18.1284 14.274C18.2964 14.2297 18.46 14.1702 18.6173 14.0963Z" fill="#ED3E24"/>
<path d="M18.6577 30.6207C18.1971 30.6652 17.7324 30.6935 17.2759 30.7581C17.1889 30.7765 17.0985 30.7708 17.0145 30.7416C16.9305 30.7124 16.856 30.6608 16.7992 30.5925C16.4603 30.2309 16.2136 29.793 16.08 29.3158C15.9225 28.7986 15.676 28.3057 15.5305 27.7886C15.2699 26.9774 15.2294 26.1115 15.4134 25.2796C15.5023 24.8756 15.6356 24.8069 16.0113 24.9564C16.2879 25.0646 16.5499 25.2072 16.7911 25.3806C16.8982 25.4583 17.0227 25.5085 17.1537 25.5268C17.2847 25.5451 17.4183 25.531 17.5426 25.4856C18.0549 25.3914 18.5588 25.2563 19.0496 25.0816C19.696 24.7867 20.3869 24.8028 21.0697 24.7059C21.8804 24.6056 22.7028 24.6591 23.4938 24.8635C23.924 25.0194 24.3057 25.2854 24.6008 25.6351C24.7454 25.7891 24.8728 25.9585 24.9806 26.1401C25.082 26.2523 25.1354 26.3997 25.1294 26.5508C25.1233 26.7018 25.0583 26.8445 24.9483 26.9482C24.5603 27.4615 24.0988 27.9148 23.5786 28.2936C23.0803 28.6553 22.7346 29.1897 22.609 29.7925C22.4878 30.4187 22.2898 30.5036 21.6272 30.5359C20.8192 30.5723 20.0475 30.6531 19.2556 30.7056C19.0574 30.709 18.8592 30.7022 18.6617 30.6854L18.6577 30.6207ZM17.2234 26.6856C17.4964 27.6476 17.8449 28.5865 18.2658 29.4935C18.7869 29.441 19.296 29.4046 19.801 29.3279C20.0703 29.3014 20.3307 29.2174 20.5646 29.0814C20.9053 28.8517 21.2022 28.563 21.4414 28.229C21.8696 27.5866 22.2211 26.8957 22.6534 26.1604C22.0553 26.0264 21.4378 26.0031 20.8313 26.0917" fill="#ED3E24"/>
<path d="M21.7767 22.3584L20.2293 22.8635C20.1364 22.8918 20.0435 22.9645 19.9505 22.9645C19.2556 22.9645 18.7062 23.3685 18.1163 23.6432C17.7446 23.821 17.7123 23.825 17.4375 23.522C16.8716 22.8529 16.4408 22.0805 16.1689 21.2474C16.1002 21.0494 15.9992 20.8434 15.9427 20.6575C15.8109 20.0679 15.7633 19.4626 15.8013 18.8596C15.8013 18.3708 16.2053 18.1486 16.7143 18.2334C17.0687 18.2924 17.4262 18.3315 17.785 18.3506C18.3482 18.347 18.8963 18.1676 19.3526 17.8375C19.4879 17.7502 19.649 17.7117 19.8091 17.7284C20.1343 17.7959 20.4698 17.7959 20.7949 17.7284C21.178 17.6187 21.5774 17.5777 21.9747 17.6072C22.7827 17.5627 23.2473 18.0678 23.5908 18.6738C23.8938 19.1909 23.72 19.6151 23.1867 19.9828C22.9039 20.1767 22.6413 20.3868 22.3787 20.5969C22.0634 20.8664 21.8169 21.2071 21.6596 21.5908C21.6193 21.7225 21.6193 21.8632 21.6596 21.9948C21.6859 22.1198 21.7252 22.2416 21.7767 22.3584ZM20.9161 19.0172C20.7217 18.9415 20.5147 18.9031 20.3061 18.9041C19.5344 19.0697 18.7223 18.9404 17.9708 19.2475C17.6961 19.3606 17.5345 19.5101 17.5668 19.7848C17.6347 20.3052 17.7818 20.812 18.0031 21.2878C18.0507 21.3935 18.1309 21.4812 18.232 21.538C18.3331 21.5947 18.4497 21.6175 18.5647 21.6029C19.3364 21.5625 19.8132 21.0696 20.1808 20.4798C20.4525 20.0061 20.698 19.5178 20.9161 19.0172Z" fill="#ED3E24"/>
</g>
<defs>
<clipPath id="clip0_459_216">
<rect width="38.9153" height="41" fill="white"/>
</clipPath>
</defs>
</svg>
