<svg width="97" height="42" viewBox="0 0 97 42" fill="none" xmlns="http://www.w3.org/2000/svg">
<g filter="url(#filter0_d_459_3841)">
<path d="M4.5 17C4.5 7.61116 12.1112 0 21.5 0H75.5C84.8888 0 92.5 7.61116 92.5 17V17C92.5 26.3888 84.8888 34 75.5 34H21.5C12.1112 34 4.5 26.3888 4.5 17V17Z" fill="#FF0000"/>
<path d="M34.1211 13.2246L31.2969 21H30.1426L33.3945 12.4688H34.1387L34.1211 13.2246ZM36.4883 21L33.6582 13.2246L33.6406 12.4688H34.3848L37.6484 21H36.4883ZM36.3418 17.8418V18.7676H31.5488V17.8418H36.3418ZM42.623 19.7695V12H43.7129V21H42.7168L42.623 19.7695ZM38.3574 17.9004V17.7773C38.3574 17.293 38.416 16.8535 38.5332 16.459C38.6543 16.0605 38.8242 15.7188 39.043 15.4336C39.2656 15.1484 39.5293 14.9297 39.834 14.7773C40.1426 14.6211 40.4863 14.543 40.8652 14.543C41.2637 14.543 41.6113 14.6133 41.9082 14.7539C42.209 14.8906 42.4629 15.0918 42.6699 15.3574C42.8809 15.6191 43.0469 15.9355 43.168 16.3066C43.2891 16.6777 43.373 17.0977 43.4199 17.5664V18.1055C43.377 18.5703 43.293 18.9883 43.168 19.3594C43.0469 19.7305 42.8809 20.0469 42.6699 20.3086C42.4629 20.5703 42.209 20.7715 41.9082 20.9121C41.6074 21.0488 41.2559 21.1172 40.8535 21.1172C40.4824 21.1172 40.1426 21.0371 39.834 20.877C39.5293 20.7168 39.2656 20.4922 39.043 20.2031C38.8242 19.9141 38.6543 19.5742 38.5332 19.1836C38.416 18.7891 38.3574 18.3613 38.3574 17.9004ZM39.4473 17.7773V17.9004C39.4473 18.2168 39.4785 18.5137 39.541 18.791C39.6074 19.0684 39.709 19.3125 39.8457 19.5234C39.9824 19.7344 40.1562 19.9004 40.3672 20.0215C40.5781 20.1387 40.8301 20.1973 41.123 20.1973C41.4824 20.1973 41.7773 20.1211 42.0078 19.9688C42.2422 19.8164 42.4297 19.6152 42.5703 19.3652C42.7109 19.1152 42.8203 18.8438 42.8984 18.5508V17.1387C42.8516 16.9238 42.7832 16.7168 42.6934 16.5176C42.6074 16.3145 42.4941 16.1348 42.3535 15.9785C42.2168 15.8184 42.0469 15.6914 41.8438 15.5977C41.6445 15.5039 41.4082 15.457 41.1348 15.457C40.8379 15.457 40.582 15.5195 40.3672 15.6445C40.1562 15.7656 39.9824 15.9336 39.8457 16.1484C39.709 16.3594 39.6074 16.6055 39.541 16.8867C39.4785 17.1641 39.4473 17.4609 39.4473 17.7773ZM49.3965 19.7695V12H50.4863V21H49.4902L49.3965 19.7695ZM45.1309 17.9004V17.7773C45.1309 17.293 45.1895 16.8535 45.3066 16.459C45.4277 16.0605 45.5977 15.7188 45.8164 15.4336C46.0391 15.1484 46.3027 14.9297 46.6074 14.7773C46.916 14.6211 47.2598 14.543 47.6387 14.543C48.0371 14.543 48.3848 14.6133 48.6816 14.7539C48.9824 14.8906 49.2363 15.0918 49.4434 15.3574C49.6543 15.6191 49.8203 15.9355 49.9414 16.3066C50.0625 16.6777 50.1465 17.0977 50.1934 17.5664V18.1055C50.1504 18.5703 50.0664 18.9883 49.9414 19.3594C49.8203 19.7305 49.6543 20.0469 49.4434 20.3086C49.2363 20.5703 48.9824 20.7715 48.6816 20.9121C48.3809 21.0488 48.0293 21.1172 47.627 21.1172C47.2559 21.1172 46.916 21.0371 46.6074 20.877C46.3027 20.7168 46.0391 20.4922 45.8164 20.2031C45.5977 19.9141 45.4277 19.5742 45.3066 19.1836C45.1895 18.7891 45.1309 18.3613 45.1309 17.9004ZM46.2207 17.7773V17.9004C46.2207 18.2168 46.252 18.5137 46.3145 18.791C46.3809 19.0684 46.4824 19.3125 46.6191 19.5234C46.7559 19.7344 46.9297 19.9004 47.1406 20.0215C47.3516 20.1387 47.6035 20.1973 47.8965 20.1973C48.2559 20.1973 48.5508 20.1211 48.7812 19.9688C49.0156 19.8164 49.2031 19.6152 49.3438 19.3652C49.4844 19.1152 49.5938 18.8438 49.6719 18.5508V17.1387C49.625 16.9238 49.5566 16.7168 49.4668 16.5176C49.3809 16.3145 49.2676 16.1348 49.127 15.9785C48.9902 15.8184 48.8203 15.6914 48.6172 15.5977C48.418 15.5039 48.1816 15.457 47.9082 15.457C47.6113 15.457 47.3555 15.5195 47.1406 15.6445C46.9297 15.7656 46.7559 15.9336 46.6191 16.1484C46.4824 16.3594 46.3809 16.6055 46.3145 16.8867C46.252 17.1641 46.2207 17.4609 46.2207 17.7773ZM64.5488 12.4219V21H63.4648V13.7754L61.2793 14.5723V13.5938L64.3789 12.4219H64.5488Z" fill="white"/>
</g>
<defs>
<filter id="filter0_d_459_3841" x="0.5" y="0" width="96" height="42" filterUnits="userSpaceOnUse" color-interpolation-filters="sRGB">
<feFlood flood-opacity="0" result="BackgroundImageFix"/>
<feColorMatrix in="SourceAlpha" type="matrix" values="0 0 0 0 0 0 0 0 0 0 0 0 0 0 0 0 0 0 127 0" result="hardAlpha"/>
<feOffset dy="4"/>
<feGaussianBlur stdDeviation="2"/>
<feComposite in2="hardAlpha" operator="out"/>
<feColorMatrix type="matrix" values="0 0 0 0 0 0 0 0 0 0 0 0 0 0 0 0 0 0 0.25 0"/>
<feBlend mode="normal" in2="BackgroundImageFix" result="effect1_dropShadow_459_3841"/>
<feBlend mode="normal" in="SourceGraphic" in2="effect1_dropShadow_459_3841" result="shape"/>
</filter>
</defs>
</svg>
