<svg width="239" height="41" viewBox="0 0 239 41" fill="none" xmlns="http://www.w3.org/2000/svg">
<path d="M80.3072 20.5063C79.9245 20.5063 79.5504 20.3928 79.2322 20.1802C78.914 19.9676 78.666 19.6654 78.5196 19.3118C78.3732 18.9583 78.3348 18.5692 78.4095 18.1939C78.4842 17.8186 78.6684 17.4738 78.939 17.2032C79.2096 16.9326 79.5544 16.7483 79.9297 16.6737C80.3051 16.599 80.6941 16.6373 81.0477 16.7838C81.4012 16.9302 81.7034 17.1782 81.916 17.4964C82.1286 17.8146 82.2421 18.1887 82.2421 18.5714C82.2421 19.0845 82.0382 19.5767 81.6754 19.9395C81.3125 20.3024 80.8204 20.5063 80.3072 20.5063ZM80.3072 17.1143C80.0179 17.1143 79.7351 17.2001 79.4946 17.361C79.2541 17.5218 79.0667 17.7504 78.9562 18.0178C78.8457 18.2852 78.817 18.5793 78.8738 18.863C78.9306 19.1467 79.0703 19.4072 79.2752 19.6114C79.4801 19.8157 79.7411 19.9545 80.0249 20.0104C80.3088 20.0663 80.6029 20.0366 80.8699 19.9253C81.1369 19.8139 81.3649 19.6258 81.525 19.3848C81.685 19.1438 81.77 18.8607 81.769 18.5714C81.7678 18.1845 81.6132 17.8139 81.3392 17.5408C81.0652 17.2676 80.6941 17.1143 80.3072 17.1143Z" fill="#36259B"/>
<path d="M76.5369 24.1112C76.1541 24.1112 75.7798 23.9976 75.4615 23.7848C75.1432 23.572 74.8952 23.2695 74.7489 22.9157C74.6026 22.5619 74.5645 22.1726 74.6396 21.7971C74.7146 21.4217 74.8994 21.0769 75.1704 20.8065C75.4415 20.5361 75.7867 20.3522 76.1624 20.2781C76.538 20.2039 76.9272 20.2429 77.2807 20.3901C77.6341 20.5373 77.936 20.786 78.148 21.1048C78.3601 21.4236 78.4728 21.7982 78.4718 22.1811C78.4706 22.6934 78.2662 23.1844 77.9034 23.5462C77.5407 23.908 77.0493 24.1112 76.5369 24.1112ZM76.5369 20.7193C76.2478 20.7193 75.9652 20.805 75.7248 20.9656C75.4844 21.1262 75.297 21.3546 75.1864 21.6217C75.0758 21.8888 75.0468 22.1827 75.1032 22.4663C75.1596 22.7498 75.2988 23.0103 75.5033 23.2147C75.7077 23.4192 75.9682 23.5584 76.2518 23.6148C76.5353 23.6712 76.8292 23.6423 77.0963 23.5316C77.3635 23.421 77.5918 23.2336 77.7524 22.9932C77.913 22.7528 77.9988 22.4702 77.9988 22.1811C77.9988 21.7934 77.8447 21.4216 77.5706 21.1474C77.2965 20.8733 76.9246 20.7193 76.5369 20.7193Z" fill="#36259B"/>
<path d="M71.806 26.5995C71.7243 26.4164 71.6824 26.2181 71.683 26.0176C71.681 25.7854 71.7343 25.5561 71.8386 25.3486C71.9429 25.1411 72.0951 24.9614 72.2827 24.8245C72.4702 24.6876 72.6877 24.5973 72.9171 24.5611C73.1465 24.5249 73.3812 24.5439 73.6017 24.6165C73.8223 24.6891 74.0224 24.8133 74.1855 24.9786C74.3486 25.1439 74.4699 25.3457 74.5394 25.5673C74.609 25.7889 74.6248 26.0238 74.5854 26.2527C74.5461 26.4815 74.4528 26.6977 74.3133 26.8834C74.45 26.9419 74.5955 26.9771 74.7438 26.9874H74.81C74.9791 26.7004 75.0704 26.3743 75.0749 26.0413C75.0879 25.7795 75.0475 25.5177 74.9562 25.272C74.865 25.0262 74.7247 24.8016 74.544 24.6117C74.3633 24.4218 74.1458 24.2706 73.9049 24.1673C73.664 24.064 73.4046 24.0107 73.1424 24.0107C72.8803 24.0107 72.6209 24.064 72.3799 24.1673C72.139 24.2706 71.9216 24.4218 71.7408 24.6117C71.5601 24.8016 71.4199 25.0262 71.3286 25.272C71.2373 25.5177 71.1969 25.7795 71.2099 26.0413C71.2109 26.332 71.2789 26.6185 71.4086 26.8786C71.5289 26.7695 71.6624 26.6757 71.806 26.5995Z" fill="#36259B"/>
<path d="M69.4407 31.8649C69.0579 31.8649 68.6836 31.7513 68.3653 31.5385C68.047 31.3257 67.799 31.0232 67.6527 30.6694C67.5064 30.3155 67.4683 29.9262 67.5434 29.5508C67.6184 29.1753 67.8032 28.8306 68.0743 28.5602C68.3453 28.2897 68.6905 28.1058 69.0662 28.0317C69.4418 27.9576 69.831 27.9966 70.1845 28.1438C70.538 28.2909 70.8398 28.5397 71.0519 28.8585C71.2639 29.1773 71.3766 29.5519 71.3756 29.9347C71.3744 30.4471 71.17 30.938 70.8073 31.2999C70.4445 31.6617 69.9531 31.8649 69.4407 31.8649ZM69.4407 28.4729C69.1516 28.4729 68.869 28.5587 68.6286 28.7193C68.3882 28.8799 68.2008 29.1082 68.0902 29.3753C67.9796 29.6424 67.9506 29.9364 68.007 30.2199C68.0634 30.5035 68.2026 30.764 68.4071 30.9684C68.6115 31.1728 68.872 31.3121 69.1556 31.3685C69.4391 31.4249 69.733 31.3959 70.0002 31.2853C70.2673 31.1746 70.4956 30.9873 70.6562 30.7469C70.8168 30.5065 70.9026 30.2239 70.9026 29.9347C70.9026 29.547 70.7485 29.1752 70.4744 28.9011C70.2003 28.6269 69.8284 28.4729 69.4407 28.4729Z" fill="#36259B"/>
<path d="M74.6729 30.9851C74.3553 31.0551 74.026 31.0532 73.7092 30.9796C73.3924 30.9059 73.0962 30.7623 72.842 30.5593" fill="white"/>
<path d="M74.2093 31.2924C73.6576 31.2932 73.1221 31.1063 72.6907 30.7626L72.9887 30.3936C73.2164 30.5725 73.4804 30.6995 73.7624 30.7657C74.0443 30.8319 74.3373 30.8357 74.6208 30.7767L74.7249 31.2498C74.5551 31.2826 74.3822 31.2969 74.2093 31.2924Z" fill="#36259B"/>
<path d="M78.4434 31.7514C78.6902 31.8431 78.955 31.8763 79.2168 31.8484C79.4787 31.8205 79.7305 31.7322 79.9525 31.5906" fill="white"/>
<path d="M79.0301 32.092C78.8024 32.093 78.5765 32.053 78.363 31.9737L78.5286 31.529C78.7397 31.6083 78.9664 31.6372 79.1906 31.6134C79.4148 31.5896 79.6304 31.5137 79.8201 31.3918L80.0803 31.7892C79.7662 31.988 79.4018 32.093 79.0301 32.092Z" fill="#36259B"/>
<path d="M83.8364 14.9004C83.4532 14.6639 83.0274 14.9383 82.7483 15.118C82.276 15.4206 81.7331 15.5951 81.1729 15.6242C80.857 15.635 80.5408 15.6223 80.2268 15.5864C79.9519 15.5546 79.6756 15.5372 79.3989 15.5343C79.0648 15.5126 78.7302 15.5663 78.4198 15.6916C78.1094 15.8169 77.8312 16.0106 77.6059 16.2582C77.401 16.5424 77.2532 16.8638 77.1707 17.2043C77.1423 17.3037 77.1092 17.403 77.0761 17.5024C76.9862 17.7578 76.7828 18.2025 76.4185 18.2924C75.3872 18.5479 74.4741 19.3048 73.7077 20.5442C73.6037 20.7051 73.5138 20.8754 73.4239 21.041C73.256 21.4065 73.0272 21.7408 72.7474 22.0297C72.4871 22.2441 72.1991 22.4223 71.8911 22.5596C71.4951 22.6988 71.1388 22.9321 70.8528 23.2395C70.5669 23.5469 70.3598 23.9191 70.2495 24.3241C70.1596 24.5996 70.034 24.862 69.8758 25.1047C69.556 25.4716 69.1584 25.7624 68.712 25.9563C68.3005 26.1505 67.9195 26.4039 67.5814 26.7085C66.8244 27.4654 66.6873 28.6008 66.6352 29.5469V29.9254C66.6747 30.7337 66.5374 31.5409 66.2331 32.2908C66.1609 32.4142 66.1233 32.5547 66.1243 32.6976C66.1243 33.0524 66.4886 33.2748 66.9995 33.2748H67.0515C68.6695 33.2322 70.8078 32.849 72.0567 31.3399C71.9148 31.2311 71.7965 31.1317 71.6924 31.0371C70.557 32.4138 68.5559 32.7591 67.0373 32.8017C66.815 32.8017 66.6021 32.7449 66.5974 32.6693C66.6092 32.6009 66.6332 32.5352 66.6683 32.4753C66.9983 31.6756 67.1485 30.8132 67.1083 29.9491V29.5753C67.1414 28.7522 67.2549 27.7209 67.8983 27.0822C68.2023 26.8092 68.5451 26.5828 68.9155 26.4104C69.4261 26.1876 69.8779 25.8491 70.2353 25.4217C70.4212 25.1463 70.5692 24.8471 70.6753 24.5323C70.7643 24.1804 70.9412 23.8569 71.1895 23.5921C71.4377 23.3274 71.7491 23.13 72.0945 23.0185C72.4364 22.8613 72.7548 22.6575 73.0407 22.4129C73.3587 22.0904 73.6195 21.716 73.8118 21.3059C73.897 21.1451 73.9869 20.9842 74.0815 20.8328C74.7816 19.7022 75.5953 19.0162 76.5036 18.7939C76.7463 18.7083 76.9639 18.5636 77.1365 18.3728C77.3091 18.1819 77.4315 17.9511 77.4924 17.701C77.5302 17.597 77.5633 17.4882 77.5964 17.3841C77.6623 17.0929 77.7827 16.8168 77.9513 16.5704C78.136 16.3846 78.3579 16.2401 78.6026 16.1463C78.8472 16.0525 79.1089 16.0116 79.3705 16.0263C79.626 16.0263 79.8814 16.05 80.1511 16.0737C80.4869 16.1141 80.8254 16.1283 81.1635 16.1162C81.8065 16.0843 82.4298 15.8836 82.9706 15.5343C83.174 15.4019 83.4437 15.241 83.562 15.3215C83.6802 15.4019 83.6755 15.6573 83.6471 15.8655C83.4941 16.9749 83.2761 18.0743 82.9943 19.1581C82.9108 19.5605 82.7502 19.9428 82.5212 20.2841C82.1376 20.688 81.6597 20.9904 81.1303 21.164L80.8465 21.2917C79.924 21.7033 79.4273 22.2379 79.257 22.8481C79.2297 22.9759 79.2123 23.1056 79.2049 23.2361C79.1996 23.3858 79.1725 23.534 79.1245 23.676C78.9778 24.045 78.5284 24.2295 78.0932 24.4093L77.9654 24.4613C77.1385 24.7734 76.4247 25.3273 75.917 26.0509C75.7695 26.2804 75.6429 26.5226 75.5386 26.7747L75.8508 26.6375L76.2151 26.4719C76.2482 26.4152 76.2766 26.3584 76.3097 26.3063C76.7673 25.6599 77.4084 25.1655 78.1499 24.8871L78.273 24.8351C78.5444 24.7659 78.7989 24.6421 79.021 24.4713C79.243 24.3005 79.4279 24.0862 79.5645 23.8416C79.6286 23.657 79.6668 23.4643 79.678 23.2692C79.6852 23.1596 79.6994 23.0505 79.7206 22.9428C79.8294 22.4697 80.2646 22.0628 81.0405 21.7128L81.3196 21.5898C81.9238 21.3878 82.4662 21.0344 82.8949 20.5632C83.1668 20.1751 83.3568 19.7356 83.4532 19.2717C83.7527 18.1541 83.9865 17.0199 84.1533 15.875C84.177 15.7094 84.2574 15.137 83.8364 14.9004Z" fill="#36259B"/>
<path d="M79.1671 32.7117C78.5854 32.7112 78.0124 32.57 77.4971 32.3001C77.258 32.1881 77.0481 32.0221 76.8839 31.8152C76.7197 31.6084 76.6058 31.3663 76.551 31.1079C76.3239 30.2611 76.4705 29.069 77.3363 28.4587C77.5954 28.289 77.8712 28.1463 78.1594 28.0329C78.5285 27.9116 78.865 27.7078 79.1434 27.4368C79.2871 27.2383 79.39 27.0132 79.4462 26.7745L79.4841 26.6515C79.6206 26.1348 79.9031 25.6684 80.2977 25.308C80.6783 25.0186 81.142 24.8595 81.62 24.8544C82.0981 24.8493 82.5651 24.9984 82.9517 25.2796C83.3166 25.5592 83.6147 25.9165 83.8241 26.3257C84.0336 26.7348 84.1493 27.1855 84.1628 27.645C84.2196 28.7615 83.9736 31.4722 80.5059 32.4893C80.2371 32.5699 79.9638 32.6347 79.6875 32.6833C79.5149 32.7047 79.341 32.7142 79.1671 32.7117ZM79.4982 27.7443C79.1744 28.0736 78.7772 28.3217 78.3392 28.4682C78.0816 28.5703 77.8345 28.6971 77.6012 28.8466C77.3031 29.1054 77.0873 29.4458 76.9805 29.8258C76.8737 30.2058 76.8807 30.6088 77.0004 30.9849C77.0382 31.1813 77.1235 31.3655 77.2488 31.5214C77.3741 31.6772 77.5357 31.8 77.7195 31.8791C78.3 32.1849 78.9624 32.2991 79.6118 32.2055C79.8659 32.1605 80.117 32.1005 80.364 32.0257C83.51 31.1032 83.7323 28.6621 83.6755 27.6592C83.6681 27.2683 83.5734 26.884 83.3982 26.5345C83.223 26.1849 82.9719 25.879 82.6631 25.6391C82.3623 25.4175 81.9984 25.2979 81.6247 25.2979C81.251 25.2979 80.8872 25.4175 80.5863 25.6391C80.26 25.9525 80.0274 26.3506 79.9146 26.7887L79.8767 26.907C79.8127 27.2102 79.6836 27.496 79.4982 27.7443Z" fill="#36259B"/>
<path d="M76.6079 31.3399C75.833 31.7196 74.9578 31.8439 74.1078 31.6952C73.2579 31.5464 72.477 31.1322 71.8771 30.512C71.5908 30.2471 71.3678 29.9212 71.2245 29.5584C71.0812 29.1957 71.0213 28.8053 71.0492 28.4163C71.0841 28.044 71.2376 27.6927 71.4871 27.4142C71.7367 27.1357 72.069 26.9447 72.4353 26.8693C72.5078 26.8645 72.5805 26.8645 72.6529 26.8693C73.0312 26.8848 73.402 26.9799 73.741 27.1484L73.8498 27.2005C74.1234 27.3477 74.4247 27.4363 74.7345 27.4607C75.1971 27.4396 75.6481 27.3082 76.0496 27.0775C76.2954 26.9512 76.5539 26.8513 76.8207 26.7794C77.2053 26.7284 77.5964 26.7907 77.946 26.9588C78.2956 27.1269 78.5885 27.3934 78.7887 27.7256C78.9202 27.6509 79.0385 27.555 79.1388 27.4418C78.8807 27.0431 78.5132 26.7272 78.0803 26.5317C77.6475 26.3363 77.1675 26.2695 76.6977 26.3395C76.3981 26.4204 76.1079 26.533 75.832 26.6754C75.4945 26.8688 75.1177 26.9836 74.7297 27.0113C74.486 26.9845 74.2498 26.9105 74.0343 26.7936L73.9208 26.7416C73.4394 26.4905 72.8952 26.3853 72.3549 26.4388C71.885 26.5306 71.4572 26.771 71.1343 27.1245C70.8115 27.478 70.6108 27.9259 70.5619 28.4021C70.5278 28.8622 70.5972 29.3242 70.7651 29.754C70.9329 30.1837 71.1949 30.5705 71.5317 30.8858C72.3832 31.7524 73.5388 32.253 74.7534 32.2813C75.4737 32.2793 76.1845 32.1177 76.8349 31.8083C76.7359 31.6646 76.6594 31.5066 76.6079 31.3399Z" fill="#36259B"/>
<path d="M113.254 26.0695L112.781 26.0411C112.971 22.8447 112.983 19.6402 112.819 16.4424L113.292 16.4187C113.459 19.6338 113.446 22.8558 113.254 26.0695Z" fill="#36259B"/>
<path d="M118.782 18.2447L115.197 26.4927L115.631 26.6812L119.215 18.4333L118.782 18.2447Z" fill="#36259B"/>
<path d="M116.627 27.2049L116.348 26.8217C118.24 25.4404 120.265 24.1441 122.309 22.9614L122.545 23.373C120.508 24.5476 118.532 25.8266 116.627 27.2049Z" fill="#36259B"/>
<path d="M106.668 18.0415L106.237 18.2356L109.926 26.4372L110.357 26.2431L106.668 18.0415Z" fill="#36259B"/>
<path d="M108.873 28.2314C107.095 26.5662 105.254 24.9199 103.405 23.3398L103.712 22.9802C105.567 24.565 107.412 26.2161 109.2 27.8861L108.873 28.2314Z" fill="#36259B"/>
<path d="M116.565 33.705H108.996C108.846 33.7209 108.694 33.7064 108.549 33.6626C108.405 33.6187 108.27 33.5462 108.154 33.4495C107.984 33.2745 107.832 32.9386 108.064 32.3189C108.413 31.4151 109.006 30.6259 109.777 30.0386C111.078 29.0594 112.762 29.3101 114.389 29.5656C114.891 29.6413 115.359 29.7122 115.808 29.7453H115.917L117.464 31.8411C117.625 32.054 118.112 32.7163 117.767 33.2603C117.624 33.4341 117.437 33.5668 117.226 33.6449C117.015 33.723 116.787 33.7438 116.565 33.705ZM110.027 30.3935C109.324 30.9329 108.786 31.659 108.476 32.4892C108.41 32.6595 108.32 32.9623 108.476 33.1231C108.627 33.2174 108.806 33.2559 108.982 33.2319H116.551C116.892 33.2319 117.223 33.2083 117.351 33.0001C117.478 32.792 117.374 32.527 117.072 32.1013L115.652 30.1806C115.208 30.1427 114.744 30.0765 114.295 30.0055C112.762 29.7784 111.182 29.5324 110.037 30.4029L110.027 30.3935Z" fill="#36259B"/>
<path d="M111.887 33.6956C112.213 33.9442 112.607 34.0877 113.017 34.1071C113.145 34.1058 113.272 34.0883 113.396 34.0551C113.627 33.9866 113.839 33.8651 114.016 33.7003L111.887 33.6956Z" fill="#36259B"/>
<path d="M122.768 23.1601C122.872 22.9493 122.93 22.7188 122.938 22.4839C122.946 22.249 122.904 22.015 122.815 21.7976C122.651 21.1982 122.424 20.6179 122.138 20.0661C121.837 19.5893 121.507 19.1312 121.15 18.6942C120.989 18.4758 120.784 18.2937 120.549 18.1596C120.335 18.0705 120.106 18.0246 119.875 18.0246C119.643 18.0246 119.414 18.0705 119.201 18.1596C119.205 17.7568 119.071 17.3646 118.822 17.0479C118.529 16.7185 118.178 16.4459 117.786 16.2437C117.031 15.7585 116.175 15.4512 115.283 15.3448C114.887 15.3089 114.487 15.3556 114.109 15.4818C113.731 15.608 113.384 15.811 113.088 16.0781C112.876 15.7267 112.538 15.4696 112.142 15.359C111.651 15.2373 111.141 15.218 110.643 15.3022C109.74 15.3746 108.859 15.6153 108.045 16.0118C107.243 16.4112 106.618 17.0939 106.29 17.9278C105.748 18.0441 105.236 18.2725 104.787 18.5984C104.338 18.9243 103.962 19.3404 103.684 19.8201C103.399 20.3177 103.22 20.8684 103.157 21.4381C103.095 22.0077 103.15 22.5842 103.319 23.1317C102.953 24.0885 102.696 25.0835 102.553 26.0979C102.501 26.693 102.678 27.2855 103.05 27.7537C103.498 28.121 104.003 28.4134 104.545 28.6194C106.03 29.2767 107.44 30.0919 108.75 31.051C108.847 30.9247 108.951 30.8047 109.062 30.6915C107.716 29.702 106.266 28.8613 104.738 28.1842C104.255 27.9916 103.799 27.7338 103.385 27.4178C103.116 27.0525 102.987 26.6026 103.021 26.1499C103.163 25.1603 103.418 24.1903 103.783 23.2594L103.83 23.1695L103.797 23.0749C103.633 22.5813 103.575 22.0587 103.627 21.5412C103.678 21.0237 103.838 20.5227 104.095 20.0709C104.347 19.6284 104.693 19.247 105.109 18.9542C105.526 18.6614 106.002 18.4644 106.503 18.3772H106.654L106.697 18.2353C106.828 17.8496 107.034 17.4937 107.304 17.1883C107.573 16.883 107.901 16.6342 108.268 16.4565C109.029 16.0838 109.854 15.8606 110.699 15.799C110.914 15.7707 111.131 15.755 111.347 15.7517C111.571 15.7491 111.794 15.7777 112.01 15.8368C112.198 15.8804 112.371 15.9756 112.509 16.1117C112.647 16.2479 112.744 16.4197 112.79 16.6079L112.88 17.2087L113.221 16.7073C113.459 16.3992 113.773 16.158 114.132 16.0072C114.491 15.8563 114.883 15.8009 115.269 15.8463C116.088 15.9515 116.874 16.2375 117.568 16.6836C117.905 16.8471 118.207 17.0736 118.458 17.3507C118.581 17.5069 118.667 17.6887 118.711 17.8828C118.754 18.0768 118.753 18.2781 118.708 18.4719L118.638 18.8834L119.03 18.732C119.228 18.6206 119.447 18.5502 119.673 18.525C119.899 18.4998 120.128 18.5203 120.345 18.5854C120.52 18.6941 120.673 18.8354 120.795 19.0017C121.14 19.4215 121.456 19.864 121.741 20.3263C122.003 20.8425 122.211 21.3848 122.361 21.9443C122.441 22.1666 122.588 22.8336 122.261 22.9945L121.093 23.5622L122.38 23.4392C122.417 23.4392 122.611 23.671 122.503 25.1896V25.2558C122.432 26.3959 122.304 27.4745 121.604 28.1652C121.055 28.7045 120.274 28.889 119.446 29.083C119.191 29.1398 118.936 29.2013 118.69 29.2675C117.862 29.5081 117.082 29.8872 116.381 30.3887L116.665 30.7672C117.318 30.301 118.046 29.9491 118.817 29.7264C119.059 29.6554 119.29 29.5987 119.551 29.5419C120.407 29.3432 121.292 29.1351 121.916 28.5011C122.734 27.6969 122.862 26.4716 122.957 25.2889V25.2227C123.032 24.4043 123.051 23.5291 122.768 23.1601Z" fill="#36259B"/>
<path d="M157.229 21.1466C156.98 20.2976 156.557 19.5096 155.986 18.8328C155.416 18.1561 154.712 17.6052 153.917 17.2153H153.889C153.889 17.1869 153.889 17.1586 153.865 17.1302C153.842 17.1018 153.827 16.993 153.813 16.922C153.776 16.6632 153.776 16.4003 153.813 16.1415C153.842 15.8694 153.842 15.5951 153.813 15.323C153.801 15.1822 153.735 15.0516 153.629 14.9588C153.541 14.8933 153.435 14.8584 153.326 14.8594C153.027 14.8755 152.734 14.954 152.466 15.0901C152.199 15.2262 151.963 15.4167 151.774 15.6494L151.628 15.8008C151.488 15.9527 151.339 16.0964 151.183 16.2313C150.426 16.0374 149.683 15.8955 149.016 15.7583C148.351 15.6365 147.667 15.6713 147.017 15.8598C146.368 16.0483 145.771 16.3854 145.275 16.8443C144.778 17.3033 144.395 17.8716 144.156 18.5042C143.917 19.1368 143.828 19.8163 143.898 20.489V20.6215L144.021 20.6783C147.687 22.3482 151.481 24.0797 155.072 25.8064L155.171 25.8538L155.27 25.8064C156.846 25.0874 157.697 23.0389 157.229 21.1466ZM151.978 16.1131L152.124 15.9617C152.272 15.7766 152.455 15.6231 152.663 15.5101C152.871 15.3972 153.1 15.3271 153.335 15.3041C153.34 15.3259 153.34 15.3485 153.335 15.3703C153.366 15.6059 153.366 15.8444 153.335 16.0799C153.3 16.3643 153.3 16.6519 153.335 16.9362C152.819 16.7099 152.288 16.5186 151.746 16.3638C151.817 16.2786 151.902 16.1982 151.978 16.1131ZM155.195 25.3334C151.67 23.6445 147.961 21.9509 144.366 20.3093C144.326 19.7189 144.422 19.1273 144.645 18.5793C144.869 18.0314 145.214 17.5416 145.655 17.1471C146.096 16.7526 146.621 16.4638 147.19 16.3027C147.76 16.1415 148.358 16.1123 148.941 16.2171C150.36 16.4915 152.162 16.8274 153.671 17.6364C154.41 17.9931 155.067 18.5 155.599 19.1248C156.131 19.7496 156.526 20.4785 156.761 21.2649C157.167 22.8734 156.463 24.6711 155.195 25.3334Z" fill="#36259B"/>
<path d="M145.648 33.6027C145.332 33.6038 145.016 33.588 144.702 33.5554H144.621L144.56 33.4939C141.3 30.1824 140.818 24.7278 143.467 21.0472L143.58 20.8911L143.789 20.9857C147.573 22.7219 151.457 24.5102 155.299 26.1896L155.493 26.2748L155.426 26.4782C154.726 28.5269 153.412 30.31 151.662 31.5849C149.913 32.8598 147.812 33.5644 145.648 33.6027ZM144.848 33.0918C147.01 33.2349 149.161 32.6732 150.976 31.491C152.792 30.3089 154.176 28.5699 154.92 26.535C151.188 24.8934 147.408 23.1572 143.746 21.473C141.376 24.9454 141.844 29.9932 144.848 33.0918Z" fill="#36259B"/>
<path d="M186.818 31.9395C186.649 31.9292 186.485 31.8737 186.345 31.7786C185.096 30.9791 184.58 29.5457 184.084 28.1596C183.801 27.2303 183.394 26.3438 182.872 25.5245C182.116 24.5984 181.201 23.8136 180.171 23.2065C179.816 22.9699 179.452 22.7334 179.102 22.4684C178.118 21.7399 176.486 20.2355 176.637 18.3337H176.874C176.732 20.122 178.293 21.5601 179.239 22.2603C179.585 22.511 179.949 22.757 180.299 22.9936C181.353 23.6097 182.287 24.411 183.057 25.359C183.592 26.1962 184.012 27.1016 184.306 28.0508C184.807 29.47 185.285 30.7946 186.468 31.5516C186.648 31.6604 186.884 31.7313 186.984 31.6131L187.163 31.7645C187.124 31.8188 187.072 31.8631 187.012 31.8935C186.952 31.9239 186.885 31.9397 186.818 31.9395Z" fill="#36259B"/>
<path d="M191.402 29.3378L191.17 29.2905C191.326 28.5241 190.943 27.6441 190.148 26.9251C189.742 26.5848 189.308 26.2779 188.852 26.0073C188.516 25.7944 188.171 25.5768 187.849 25.3308C187.226 24.854 186.689 24.2749 186.26 23.6182C185.725 22.7171 185.293 21.7586 184.973 20.7608C184.826 20.3445 184.67 19.9188 184.5 19.5072C183.8 17.7805 182.915 16.6971 181.799 16.1956L181.893 15.978C183.071 16.5126 183.994 17.6385 184.732 19.422C184.902 19.8383 185.058 20.2688 185.205 20.6852C185.515 21.6767 185.939 22.6292 186.468 23.5236C186.881 24.1602 187.401 24.7204 188.005 25.1794C188.318 25.4207 188.658 25.6525 188.989 25.8464C189.455 26.1259 189.898 26.4423 190.314 26.7926C191.166 27.5259 191.572 28.4862 191.402 29.3378Z" fill="#36259B"/>
<path d="M189.249 30.6056C188.74 29.9714 188.125 29.4291 187.433 29.0019C186.616 28.5204 185.92 27.8585 185.399 27.067C185.113 26.4966 184.919 25.8854 184.821 25.2551C184.744 24.8143 184.63 24.3807 184.481 23.9589C183.956 22.568 182.797 21.6361 181.571 20.6473C180.669 19.9857 179.858 19.2079 179.159 18.334L179.348 18.1968C180.035 19.0512 180.83 19.8129 181.713 20.4628C182.91 21.409 184.15 22.4119 184.698 23.8643C184.852 24.2984 184.969 24.7447 185.049 25.1984C185.143 25.8043 185.328 26.3927 185.597 26.944C186.103 27.7042 186.776 28.3386 187.565 28.7985C188.288 29.2388 188.929 29.8024 189.458 30.4637L189.249 30.6056Z" fill="#36259B"/>
<path d="M182.456 25.9882L182.262 25.8463C182.721 25.2034 183.262 24.6229 183.87 24.1196C184.63 23.5199 185.471 23.0309 186.368 22.6672L186.458 22.8848C185.583 23.2403 184.763 23.7182 184.022 24.3041C183.427 24.7933 182.901 25.3597 182.456 25.9882Z" fill="#36259B"/>
<path d="M179.826 23.7602L179.613 23.6608C180.127 22.5993 180.884 21.6738 181.822 20.9595C182.748 20.2506 183.753 19.6521 184.817 19.176L184.916 19.3889C183.869 19.8584 182.88 20.4473 181.969 21.144C181.06 21.8367 180.326 22.7327 179.826 23.7602Z" fill="#36259B"/>
<path d="M177.356 21.5225L177.172 21.3758C178.845 19.2959 181.058 17.7151 183.568 16.8059L183.648 17.0282C181.179 17.9228 179.003 19.4772 177.356 21.5225Z" fill="#36259B"/>
<path d="M183.634 27.9231L183.606 27.6865C183.974 27.615 184.323 27.4649 184.628 27.2466C185.786 26.4956 186.747 25.4765 187.428 24.2756L187.632 24.3892C186.934 25.6256 185.947 26.6743 184.755 27.4453C184.422 27.686 184.039 27.8493 183.634 27.9231Z" fill="#36259B"/>
<path d="M184.027 30.1797L183.994 29.9479C185.184 29.7373 186.278 29.1581 187.121 28.2921C187.965 27.4181 188.642 26.3967 189.117 25.2786L189.33 25.3779C188.845 26.5222 188.152 27.5665 187.286 28.4577C186.409 29.3622 185.268 29.9651 184.027 30.1797Z" fill="#36259B"/>
<path d="M185.692 32.0436L185.521 31.8827C186.001 31.4674 186.582 31.1881 187.206 31.0738C187.362 31.0312 187.518 30.9886 187.679 30.9366C188.483 30.6767 189.224 30.2539 189.857 29.6948C190.491 29.1356 191.002 28.452 191.359 27.6865L191.577 27.7859C191.205 28.5797 190.675 29.2892 190.02 29.8708C189.364 30.4525 188.596 30.894 187.764 31.1684C187.608 31.2204 187.447 31.263 187.291 31.3056C186.702 31.4052 186.15 31.6599 185.692 32.0436Z" fill="#36259B"/>
<path d="M187.944 34.39C187.517 34.3893 187.091 34.3385 186.676 34.2387C185.768 33.9967 184.931 33.5418 184.234 32.9115C183.537 32.2813 183.001 31.494 182.669 30.6149C182.471 30.0736 182.313 29.5186 182.196 28.9544C182.061 28.1214 181.776 27.3199 181.354 26.589C180.739 25.8156 179.965 25.1845 179.083 24.7392C178.544 24.4232 178.025 24.0724 177.531 23.689C176.7 23.0112 176.062 22.1256 175.684 21.122C175.305 20.1184 175.198 19.0324 175.374 17.9742C175.59 16.9078 176.146 15.9399 176.958 15.2152C177.769 14.4904 178.794 14.0477 179.878 13.953C181.742 13.8632 183.662 14.9796 184.907 16.8625C185.546 17.8552 186.025 18.9424 186.326 20.0842C186.843 21.8228 187.938 23.3331 189.429 24.3655L189.595 24.479C190.319 24.9553 190.997 25.4986 191.62 26.1017C192.088 26.5841 192.453 27.1575 192.692 27.7865C192.93 28.4155 193.037 29.0867 193.006 29.7586C192.987 30.4567 192.81 31.1413 192.488 31.7609C192.166 32.3805 191.707 32.9188 191.147 33.3351C190.221 34.0233 189.097 34.3935 187.944 34.39ZM180.11 14.6532H179.925C179.001 14.7461 178.13 15.1309 177.44 15.7518C176.749 16.3728 176.274 17.1976 176.084 18.1067C175.933 19.0379 176.031 19.9924 176.367 20.8738C176.704 21.7551 177.267 22.532 178 23.126C178.465 23.491 178.955 23.823 179.466 24.1195C180.438 24.6143 181.288 25.3188 181.955 26.1821C182.43 26.9842 182.751 27.8684 182.901 28.7888C183.008 29.3202 183.151 29.8434 183.331 30.3547C183.623 31.1259 184.094 31.8167 184.705 32.3703C185.316 32.9238 186.05 33.3242 186.846 33.5385C187.51 33.6963 188.199 33.7078 188.868 33.5722C189.536 33.4366 190.167 33.1571 190.716 32.7532C191.192 32.4006 191.581 31.9442 191.854 31.4188C192.127 30.8934 192.276 30.3127 192.291 29.7208C192.317 29.1451 192.225 28.5703 192.022 28.0312C191.818 27.4921 191.508 26.9998 191.109 26.5842C190.516 26.0127 189.872 25.498 189.183 25.0467L189.018 24.9332C187.393 23.8068 186.201 22.1596 185.64 20.2639C185.362 19.1932 184.92 18.1719 184.329 17.2362C183.506 15.9778 181.964 14.6532 180.11 14.6532Z" fill="#36259B"/>
<path d="M210.614 24.8576C210.614 21.4325 212.312 18.6414 214.398 18.6414C216.485 18.6414 218.183 21.4325 218.183 24.8576H210.614ZM217.828 24.8576C217.828 21.6265 216.291 18.9962 214.398 18.9962C212.506 18.9962 210.969 21.6265 210.969 24.8576" fill="#36259B"/>
<path d="M218.282 24.6542C218.282 21.2244 219.981 18.438 222.067 18.438C224.153 18.438 225.852 21.2244 225.852 24.6542H218.282ZM225.497 24.6542C225.497 21.4231 223.959 18.7928 222.067 18.7928C220.175 18.7928 218.633 21.4231 218.633 24.6542" fill="#36259B"/>
<path d="M226.135 24.6542C226.135 21.2244 227.834 18.438 229.92 18.438C232.006 18.438 233.705 21.2244 233.705 24.6542H226.135ZM233.35 24.6542C233.35 21.4231 231.812 18.7928 229.92 18.7928C228.028 18.7928 226.49 21.4231 226.49 24.6542" fill="#36259B"/>
<path d="M208.636 24.5217V27.171H209.876C209.847 27.0547 209.831 26.9358 209.828 26.8162H208.972V24.8765H235.086V26.8162H234.249C234.275 26.933 234.275 27.0541 234.249 27.171H235.422V24.5217H208.636Z" fill="#36259B"/>
<path d="M215.978 32.2234H215.917C215.046 32.195 214.157 32.1572 213.258 32.1146C212.925 32.0986 212.603 31.9895 212.329 31.7997C212.054 31.6099 211.839 31.3469 211.706 31.0407L211.522 30.6008C211.242 29.8868 210.91 29.1942 210.529 28.5287C209.895 27.4832 209.71 26.8019 209.937 26.3951C210.164 25.9882 210.827 25.9551 211.442 25.9551C211.626 25.9551 211.811 25.9551 211.981 25.9551C216.372 25.7071 220.773 25.6929 225.166 25.9126C227.465 25.9835 229.84 26.0639 232.162 26.0639C233.317 26.0639 233.965 26.2532 234.201 26.6647C234.438 27.0763 234.14 27.7008 233.818 28.2543C233.738 28.3867 233.662 28.5192 233.596 28.647C233.161 29.4985 232.692 30.35 232.295 31.0691C232.146 31.3373 231.931 31.5626 231.67 31.7233C231.409 31.8841 231.111 31.9749 230.805 31.9869C230.048 32.02 229.281 32.0389 228.51 32.0578C228.233 32.0621 227.959 32.0024 227.709 31.8835C227.458 31.7645 227.239 31.5894 227.067 31.3719L227.03 31.3198C226.75 30.7711 226.339 30.0425 226.012 30.0236C225.719 30.0236 225.35 30.5487 224.858 31.2962C224.824 31.344 224.788 31.3897 224.749 31.4334L224.702 31.4854C224.529 31.6927 224.312 31.858 224.066 31.9687C223.82 32.0794 223.552 32.1325 223.283 32.1241L221.073 32.0626C220.62 32.0541 220.187 31.8691 219.867 31.5469L219.787 31.4712C219.707 31.4123 219.639 31.3403 219.583 31.2583C219.162 30.5866 218.841 30.2554 218.604 30.2507C218.367 30.2459 218.022 30.6717 217.629 31.2205L217.454 31.4665C217.287 31.7016 217.065 31.8931 216.809 32.0248C216.552 32.1566 216.267 32.2247 215.978 32.2234ZM211.295 26.3194C210.822 26.3194 210.372 26.3194 210.24 26.5796C210.107 26.8398 210.145 27.2324 210.822 28.3536C211.213 29.0339 211.553 29.7423 211.839 30.473L212.023 30.9083C212.128 31.1538 212.3 31.3649 212.519 31.5172C212.739 31.6695 212.996 31.7569 213.263 31.7693C214.162 31.8118 215.051 31.8497 215.922 31.8781C216.155 31.8866 216.386 31.8375 216.596 31.7352C216.805 31.6328 216.987 31.4804 217.123 31.2915L217.322 31.0123C217.795 30.3548 218.131 29.8675 218.595 29.8959C218.973 29.8959 219.356 30.2554 219.867 31.0691C219.904 31.1201 219.949 31.1649 220 31.2016L220.099 31.2962C220.351 31.5472 220.689 31.6941 221.045 31.7078L223.254 31.7693C223.469 31.7774 223.684 31.7355 223.88 31.6469C224.076 31.5582 224.249 31.4252 224.385 31.2583L224.442 31.1968L224.517 31.1022C225.118 30.1939 225.511 29.6404 226.003 29.683C226.415 29.683 226.784 30.123 227.318 31.1779C227.456 31.3522 227.632 31.4918 227.833 31.5855C228.035 31.6791 228.255 31.7243 228.477 31.7172C229.244 31.7172 230.01 31.6794 230.762 31.6463C231.007 31.6375 231.246 31.5653 231.455 31.4368C231.664 31.3083 231.836 31.1278 231.954 30.913C232.352 30.1939 232.82 29.3424 233.255 28.5003C233.321 28.3678 233.402 28.2306 233.482 28.0887C233.738 27.644 234.031 27.1426 233.865 26.854C233.757 26.66 233.364 26.4329 232.134 26.4329C229.806 26.4329 227.427 26.3525 225.128 26.2816C220.746 26.0619 216.356 26.0761 211.976 26.3241C211.801 26.3241 211.607 26.3241 211.413 26.3241L211.295 26.3194Z" fill="#36259B"/>
<path d="M39.99 20.0901L39.8481 20.0049C39.3189 19.6612 38.8926 19.1807 38.6144 18.6143C38.3363 18.048 38.2165 17.4169 38.268 16.788C38.328 16.1705 38.5133 15.5718 38.8126 15.0284C39.112 14.485 39.519 14.0085 40.0089 13.6278L40.1792 13.4954L40.3259 13.6515C41.1304 14.4894 41.5985 15.594 41.641 16.7549C41.6678 17.3772 41.5431 17.9968 41.2778 18.5604C41.0125 19.124 40.6144 19.6148 40.1177 19.9907L39.99 20.0901ZM40.1367 14.1435C39.3325 14.8168 38.8232 15.7776 38.7174 16.8211C38.676 17.3353 38.7658 17.8516 38.9785 18.3216C39.1911 18.7916 39.5196 19.1999 39.9332 19.5082C40.3341 19.1769 40.6526 18.7571 40.8636 18.2817C41.0745 17.8064 41.1723 17.2886 41.149 16.7691C41.1168 15.8077 40.7599 14.8856 40.1367 14.1529V14.1435Z" fill="#36259B"/>
<path d="M40.4253 23.9976L40.3969 23.7895C40.3398 23.0779 40.4538 22.363 40.7295 21.7046C41.0052 21.0462 41.4346 20.4633 41.9818 20.0048C43.0707 19.1162 44.3999 18.5726 45.7995 18.4437L46.0502 18.4153V18.666C46.0844 19.3729 45.9685 20.0791 45.71 20.7379C45.4515 21.3968 45.0564 21.9934 44.5506 22.4885C43.4774 23.4674 42.0766 24.0092 40.624 24.0071L40.4253 23.9976ZM45.5961 18.9404C44.3793 19.0874 43.2301 19.5799 42.2845 20.3596C41.8276 20.7475 41.4631 21.2325 41.2176 21.7793C40.9721 22.326 40.8517 22.9206 40.8653 23.5198C42.122 23.4778 43.3228 22.9898 44.2525 22.1431C44.6771 21.7244 45.0148 21.2259 45.2462 20.6763C45.4776 20.1267 45.5981 19.5367 45.6008 18.9404H45.5961Z" fill="#36259B"/>
<path d="M39.6448 24.1633H39.4272C37.9746 24.1654 36.5738 23.6237 35.5006 22.6447C34.9948 22.1497 34.5997 21.5531 34.3412 20.8942C34.0827 20.2353 33.9668 19.5292 34.001 18.8223V18.5715L34.2517 18.6047C35.652 18.7308 36.982 19.2747 38.0694 20.1658C38.6166 20.6243 39.046 21.2071 39.3217 21.8656C39.5974 22.524 39.7114 23.2389 39.6543 23.9504L39.6448 24.1633ZM34.4693 19.1014C34.4804 20.3065 34.9687 21.4582 35.8271 22.3041C36.7576 23.1518 37.9608 23.6385 39.219 23.6761C39.2271 23.0749 39.1014 22.4795 38.8511 21.933C38.6007 21.3864 38.2319 20.9024 37.7714 20.5159C36.8261 19.7424 35.6814 19.2521 34.4693 19.1014Z" fill="#36259B"/>
<path d="M40.591 29.088L40.5673 28.8799C40.5102 28.1683 40.6242 27.4535 40.8999 26.795C41.1757 26.1366 41.605 25.5537 42.1522 25.0953C43.2402 24.2051 44.5699 23.6613 45.9699 23.5341L46.2206 23.501V23.7564C46.2537 24.4632 46.1371 25.169 45.8787 25.8277C45.6203 26.4864 45.2258 27.0831 44.721 27.5789C43.6463 28.5586 42.2438 29.1003 40.7897 29.0975L40.591 29.088ZM45.7665 24.0308C44.5494 24.1768 43.4 24.6694 42.4549 25.4501C41.9931 25.8354 41.6234 26.3193 41.373 26.8661C41.1225 27.4129 40.9975 28.0088 41.0073 28.6102C42.2644 28.5699 43.4657 28.0816 44.3946 27.2336C44.8232 26.8166 45.1651 26.319 45.4006 25.7693C45.6361 25.2196 45.7604 24.6288 45.7665 24.0308Z" fill="#36259B"/>
<path d="M39.8056 29.2537H39.5927C38.1389 29.2546 36.737 28.7131 35.6614 27.7351C35.1565 27.2396 34.7622 26.6428 34.5045 25.9839C34.2469 25.3251 34.1316 24.6192 34.1665 23.9126V23.6619L34.4172 23.6902C35.816 23.8201 37.1439 24.3654 38.2302 25.2561C38.7782 25.7141 39.2085 26.2968 39.4851 26.9552C39.7616 27.6137 39.8764 28.3288 39.8198 29.0408L39.8056 29.2537ZM34.6301 24.1917C34.643 25.3974 35.1329 26.549 35.9926 27.3945C36.9216 28.2415 38.1231 28.7281 39.3798 28.7664C39.3888 28.1656 39.264 27.5703 39.0144 27.0237C38.7649 26.4771 38.3968 25.9929 37.9369 25.6062C36.9899 24.8326 35.8436 24.3423 34.6301 24.1917Z" fill="#36259B"/>
<path d="M40.4253 34.344L40.3969 34.1311C40.3398 33.4196 40.4538 32.7047 40.7295 32.0462C41.0052 31.3878 41.4346 30.805 41.9818 30.3465C43.0702 29.4564 44.3995 28.9112 45.7995 28.7806L46.0502 28.7522V29.0029C46.0851 29.7099 45.9694 30.4162 45.7108 31.0752C45.4523 31.7341 45.0568 32.3307 44.5506 32.8254C43.4784 33.8059 42.077 34.3479 40.624 34.344H40.4253ZM45.6008 29.2915C44.3851 29.4426 43.2371 29.9346 42.2892 30.7107C41.8326 31.0989 41.4683 31.5839 41.2228 32.1306C40.9773 32.6772 40.8568 33.2718 40.87 33.8709C42.1276 33.833 43.3298 33.3445 44.2573 32.4943C44.6814 32.0754 45.0185 31.5768 45.2491 31.0271C45.4797 30.4775 45.5992 29.8876 45.6008 29.2915Z" fill="#36259B"/>
<path d="M39.6448 34.4953H39.4272C37.9746 34.4974 36.5738 33.9557 35.5006 32.9768C34.9948 32.4817 34.5997 31.8851 34.3412 31.2262C34.0827 30.5674 33.9668 29.8612 34.001 29.1543V28.9036L34.2517 28.932C35.6519 29.0617 36.9814 29.607 38.0694 30.4978C38.6175 30.9556 39.0475 31.5383 39.3233 32.1969C39.5991 32.8555 39.7126 33.5708 39.6543 34.2825L39.6448 34.4953ZM34.4693 29.4334C34.4807 30.6371 34.9689 31.7872 35.8271 32.6314C36.7582 33.4787 37.9607 33.9668 39.219 34.0081C39.2271 33.407 39.1014 32.8116 38.8511 32.265C38.6007 31.7184 38.2319 31.2344 37.7714 30.8479C36.8268 30.0758 35.681 29.5899 34.4693 29.4476V29.4334Z" fill="#36259B"/>
<path d="M1.53838 35.1751C1.16099 35.1791 0.794251 35.0465 0.502334 34.8005C0.359276 34.6604 0.246248 34.4911 0.170488 34.3035C0.0947272 34.1158 0.0579067 33.914 0.0623747 33.7109L0.251603 21.7831C0.408722 21.8118 0.5575 21.8767 0.686835 21.9728C1.47215 22.4204 3.32188 23.4662 5.41762 22.2161C8.35071 20.4648 10.0207 21.9242 10.0869 21.9874L10.1484 22.0409V33.4531C10.2214 33.8289 10.1476 34.2191 9.94318 34.5394C9.73871 34.8598 9.4199 35.0846 9.0556 35.1654H1.53838V35.1751ZM0.436104 22.2452V33.706C0.432926 33.8579 0.459333 34.0088 0.513769 34.15C0.568204 34.2912 0.649567 34.4198 0.753065 34.5281C0.999967 34.7243 1.30722 34.8227 1.6188 34.8054H9.00828C9.28493 34.7415 9.52558 34.5673 9.67729 34.321C9.829 34.0746 9.87934 33.7765 9.81725 33.492V22.2112C9.50975 21.9777 8.05267 21.0826 5.62105 22.5322C3.35027 23.8894 1.30657 22.7268 0.535453 22.2939C0.504291 22.2738 0.470947 22.2574 0.436104 22.2452Z" fill="#36259B"/>
<path d="M8.20417 14.5452H2.29541V12.4341H8.20417V14.5452ZM2.65022 14.1804H7.85409V12.7989H2.65022V14.1804Z" fill="#36259B"/>
<path d="M10.2382 22.3087C10.2288 21.2907 9.98226 20.2898 9.5191 19.39C9.3213 19.0509 9.10161 18.7259 8.86153 18.4171C8.68649 18.1836 8.50672 17.9306 8.35534 17.6971C7.77461 16.7568 7.49807 15.6518 7.56529 14.54H7.09221C7.02742 15.7396 7.32842 16.93 7.95322 17.9452C8.11879 18.2079 8.30329 18.4317 8.48306 18.6943C8.7107 18.9863 8.91931 19.2934 9.10753 19.6137C9.53281 20.4487 9.75825 21.3759 9.76511 22.3184V22.3719C9.76743 22.4043 9.76743 22.4368 9.76511 22.4692V22.7951C9.76511 23.0416 9.76511 23.2897 9.76511 23.5394V33.7063C9.76511 33.9798 9.65944 34.2421 9.47135 34.4355C9.28327 34.6289 9.02818 34.7375 8.76218 34.7375H1.4815C1.21551 34.7375 0.960405 34.6289 0.77232 34.4355C0.584234 34.2421 0.478566 33.9798 0.478566 33.7063V24.6145C0.369757 20.8007 1.15507 19.7889 1.53354 19.3024L1.63288 19.1711C2.47023 18.0036 3.50154 16.3399 3.57251 14.5449H3.09943C3.02847 16.2037 2.04919 17.7749 1.25441 18.8841L1.16926 18.9959C0.757685 19.531 -0.103317 20.6353 0.010222 24.6242V33.7063C0.010222 34.1088 0.165725 34.4948 0.44253 34.7795C0.719335 35.0641 1.09476 35.224 1.48623 35.224H8.78583C9.17729 35.224 9.55272 35.0641 9.82953 34.7795C10.1063 34.4948 10.2618 34.1088 10.2618 33.7063V23.5637C10.2618 23.3108 10.2618 23.0773 10.2618 22.8097V22.4887C10.2582 22.4282 10.2503 22.368 10.2382 22.3087Z" fill="#36259B"/>
</svg>
