<svg width="41" height="35" viewBox="0 0 41 35" fill="none" xmlns="http://www.w3.org/2000/svg">
<circle cx="19.5" cy="13.5" r="13.5" fill="#FF0000"/>
<path d="M21.0357 10.6035V18H19.0601V10.6035H21.0357ZM18.9371 8.67578C18.9371 8.38867 19.0373 8.15169 19.2379 7.96484C19.4384 7.77799 19.7073 7.68457 20.0445 7.68457C20.3772 7.68457 20.6438 7.77799 20.8443 7.96484C21.0494 8.15169 21.1519 8.38867 21.1519 8.67578C21.1519 8.96289 21.0494 9.19987 20.8443 9.38672C20.6438 9.57357 20.3772 9.66699 20.0445 9.66699C19.7073 9.66699 19.4384 9.57357 19.2379 9.38672C19.0373 9.19987 18.9371 8.96289 18.9371 8.67578Z" fill="white"/>
</svg>
