<svg width="24" height="37" viewBox="0 0 24 37" fill="none" xmlns="http://www.w3.org/2000/svg">
<rect x="1" y="1" width="22" height="27.3333" rx="9" stroke="#FF0000" stroke-width="2"/>
<path d="M13.4364 9.51013V22.3334H10.9052V12.4281L7.86415 13.3949V11.3998L13.164 9.51013H13.4364Z" fill="#FF0000"/>
<path d="M12 35.1112V36.1112H13V35.1112H12ZM1.33334 34.1112C0.781051 34.1112 0.333336 34.5589 0.333336 35.1112C0.333336 35.6634 0.781051 36.1112 1.33334 36.1112V34.1112ZM22.6667 36.1112C23.219 36.1112 23.6667 35.6634 23.6667 35.1112C23.6667 34.5589 23.219 34.1112 22.6667 34.1112V36.1112ZM11 29.3334V35.1112H13V29.3334H11ZM12 34.1112H1.33334V36.1112H12V34.1112ZM1.33334 36.1112H22.6667V34.1112H1.33334V36.1112Z" fill="#FF0000"/>
</svg>
