<svg width="390" height="52" viewBox="0 0 390 52" fill="none" xmlns="http://www.w3.org/2000/svg">
<g filter="url(#filter0_d_37_422)">
<rect width="390" height="44" fill="#FF0000"/>
</g>
<path d="M160.526 18.9287L157.231 28H155.885L159.679 18.0469H160.547L160.526 18.9287ZM163.288 28L159.986 18.9287L159.966 18.0469H160.834L164.642 28H163.288ZM163.117 24.3154V25.3955H157.525V24.3154H163.117ZM170.445 26.5645V17.5H171.717V28H170.555L170.445 26.5645ZM165.469 24.3838V24.2402C165.469 23.6751 165.537 23.1624 165.674 22.7021C165.815 22.2373 166.013 21.8385 166.269 21.5059C166.528 21.1732 166.836 20.918 167.191 20.7402C167.551 20.5579 167.952 20.4668 168.395 20.4668C168.859 20.4668 169.265 20.5488 169.611 20.7129C169.962 20.8724 170.258 21.1071 170.5 21.417C170.746 21.7223 170.94 22.0915 171.081 22.5244C171.222 22.9574 171.32 23.4473 171.375 23.9941V24.623C171.325 25.1654 171.227 25.653 171.081 26.0859C170.94 26.5189 170.746 26.888 170.5 27.1934C170.258 27.4987 169.962 27.7334 169.611 27.8975C169.26 28.057 168.85 28.1367 168.381 28.1367C167.948 28.1367 167.551 28.0433 167.191 27.8564C166.836 27.6696 166.528 27.4076 166.269 27.0703C166.013 26.7331 165.815 26.3366 165.674 25.8809C165.537 25.4206 165.469 24.9215 165.469 24.3838ZM166.74 24.2402V24.3838C166.74 24.7529 166.777 25.0993 166.85 25.4229C166.927 25.7464 167.046 26.0312 167.205 26.2773C167.365 26.5234 167.567 26.7171 167.813 26.8584C168.06 26.9951 168.354 27.0635 168.695 27.0635C169.115 27.0635 169.459 26.9746 169.728 26.7969C170.001 26.6191 170.22 26.3844 170.384 26.0928C170.548 25.8011 170.675 25.4844 170.767 25.1426V23.4951C170.712 23.2445 170.632 23.0029 170.527 22.7705C170.427 22.5335 170.295 22.3239 170.131 22.1416C169.971 21.9548 169.773 21.8066 169.536 21.6973C169.304 21.5879 169.028 21.5332 168.709 21.5332C168.363 21.5332 168.064 21.6061 167.813 21.752C167.567 21.8932 167.365 22.0892 167.205 22.3398C167.046 22.5859 166.927 22.873 166.85 23.2012C166.777 23.5247 166.74 23.8711 166.74 24.2402ZM178.348 26.5645V17.5H179.619V28H178.457L178.348 26.5645ZM173.371 24.3838V24.2402C173.371 23.6751 173.439 23.1624 173.576 22.7021C173.717 22.2373 173.916 21.8385 174.171 21.5059C174.431 21.1732 174.738 20.918 175.094 20.7402C175.454 20.5579 175.855 20.4668 176.297 20.4668C176.762 20.4668 177.167 20.5488 177.514 20.7129C177.865 20.8724 178.161 21.1071 178.402 21.417C178.648 21.7223 178.842 22.0915 178.983 22.5244C179.125 22.9574 179.223 23.4473 179.277 23.9941V24.623C179.227 25.1654 179.129 25.653 178.983 26.0859C178.842 26.5189 178.648 26.888 178.402 27.1934C178.161 27.4987 177.865 27.7334 177.514 27.8975C177.163 28.057 176.753 28.1367 176.283 28.1367C175.85 28.1367 175.454 28.0433 175.094 27.8564C174.738 27.6696 174.431 27.4076 174.171 27.0703C173.916 26.7331 173.717 26.3366 173.576 25.8809C173.439 25.4206 173.371 24.9215 173.371 24.3838ZM174.643 24.2402V24.3838C174.643 24.7529 174.679 25.0993 174.752 25.4229C174.829 25.7464 174.948 26.0312 175.107 26.2773C175.267 26.5234 175.47 26.7171 175.716 26.8584C175.962 26.9951 176.256 27.0635 176.598 27.0635C177.017 27.0635 177.361 26.9746 177.63 26.7969C177.903 26.6191 178.122 26.3844 178.286 26.0928C178.45 25.8011 178.578 25.4844 178.669 25.1426V23.4951C178.614 23.2445 178.535 23.0029 178.43 22.7705C178.329 22.5335 178.197 22.3239 178.033 22.1416C177.874 21.9548 177.675 21.8066 177.438 21.6973C177.206 21.5879 176.93 21.5332 176.611 21.5332C176.265 21.5332 175.966 21.6061 175.716 21.752C175.47 21.8932 175.267 22.0892 175.107 22.3398C174.948 22.5859 174.829 22.873 174.752 23.2012C174.679 23.5247 174.643 23.8711 174.643 24.2402ZM188.157 20.6035V21.5742H184.158V20.6035H188.157ZM185.512 18.8057H186.776V26.168C186.776 26.4186 186.815 26.6077 186.893 26.7354C186.97 26.863 187.07 26.9473 187.193 26.9883C187.316 27.0293 187.449 27.0498 187.59 27.0498C187.695 27.0498 187.804 27.0407 187.918 27.0225C188.036 26.9997 188.125 26.9814 188.185 26.9678L188.191 28C188.091 28.0319 187.959 28.0615 187.795 28.0889C187.635 28.1208 187.442 28.1367 187.214 28.1367C186.904 28.1367 186.619 28.0752 186.359 27.9521C186.1 27.8291 185.892 27.624 185.737 27.3369C185.587 27.0452 185.512 26.6533 185.512 26.1611V18.8057ZM189.169 24.3838V24.2266C189.169 23.6934 189.246 23.1989 189.401 22.7432C189.556 22.2829 189.78 21.8841 190.071 21.5469C190.363 21.2051 190.716 20.9408 191.131 20.7539C191.546 20.5625 192.01 20.4668 192.525 20.4668C193.045 20.4668 193.512 20.5625 193.927 20.7539C194.346 20.9408 194.701 21.2051 194.993 21.5469C195.289 21.8841 195.515 22.2829 195.67 22.7432C195.825 23.1989 195.902 23.6934 195.902 24.2266V24.3838C195.902 24.917 195.825 25.4115 195.67 25.8672C195.515 26.3229 195.289 26.7217 194.993 27.0635C194.701 27.4007 194.348 27.665 193.934 27.8564C193.523 28.0433 193.059 28.1367 192.539 28.1367C192.02 28.1367 191.552 28.0433 191.138 27.8564C190.723 27.665 190.368 27.4007 190.071 27.0635C189.78 26.7217 189.556 26.3229 189.401 25.8672C189.246 25.4115 189.169 24.917 189.169 24.3838ZM190.434 24.2266V24.3838C190.434 24.7529 190.477 25.1016 190.563 25.4297C190.65 25.7533 190.78 26.0404 190.953 26.291C191.131 26.5417 191.352 26.7399 191.616 26.8857C191.881 27.027 192.188 27.0977 192.539 27.0977C192.885 27.0977 193.188 27.027 193.448 26.8857C193.713 26.7399 193.931 26.5417 194.104 26.291C194.278 26.0404 194.408 25.7533 194.494 25.4297C194.585 25.1016 194.631 24.7529 194.631 24.3838V24.2266C194.631 23.862 194.585 23.5179 194.494 23.1943C194.408 22.8662 194.275 22.5768 194.098 22.3262C193.924 22.071 193.706 21.8704 193.441 21.7246C193.182 21.5788 192.876 21.5059 192.525 21.5059C192.179 21.5059 191.874 21.5788 191.609 21.7246C191.35 21.8704 191.131 22.071 190.953 22.3262C190.78 22.5768 190.65 22.8662 190.563 23.1943C190.477 23.5179 190.434 23.862 190.434 24.2266ZM208.815 22.709V23.3379C208.815 24.0853 208.722 24.7552 208.535 25.3477C208.348 25.9401 208.079 26.4437 207.729 26.8584C207.378 27.2731 206.956 27.5898 206.464 27.8086C205.976 28.0273 205.429 28.1367 204.823 28.1367C204.235 28.1367 203.695 28.0273 203.203 27.8086C202.715 27.5898 202.292 27.2731 201.932 26.8584C201.576 26.4437 201.3 25.9401 201.104 25.3477C200.909 24.7552 200.811 24.0853 200.811 23.3379V22.709C200.811 21.9616 200.906 21.2939 201.098 20.7061C201.294 20.1136 201.569 19.61 201.925 19.1953C202.28 18.776 202.702 18.457 203.189 18.2383C203.682 18.0195 204.222 17.9102 204.81 17.9102C205.416 17.9102 205.963 18.0195 206.45 18.2383C206.942 18.457 207.364 18.776 207.715 19.1953C208.07 19.61 208.341 20.1136 208.528 20.7061C208.72 21.2939 208.815 21.9616 208.815 22.709ZM207.51 23.3379V22.6953C207.51 22.1029 207.448 21.5788 207.325 21.123C207.207 20.6673 207.031 20.2845 206.799 19.9746C206.566 19.6647 206.282 19.43 205.944 19.2705C205.612 19.111 205.233 19.0312 204.81 19.0312C204.399 19.0312 204.028 19.111 203.695 19.2705C203.367 19.43 203.085 19.6647 202.848 19.9746C202.615 20.2845 202.435 20.6673 202.308 21.123C202.18 21.5788 202.116 22.1029 202.116 22.6953V23.3379C202.116 23.9349 202.18 24.4635 202.308 24.9238C202.435 25.3796 202.618 25.7646 202.854 26.0791C203.096 26.389 203.381 26.6237 203.709 26.7832C204.042 26.9427 204.413 27.0225 204.823 27.0225C205.252 27.0225 205.632 26.9427 205.965 26.7832C206.298 26.6237 206.578 26.389 206.806 26.0791C207.038 25.7646 207.214 25.3796 207.332 24.9238C207.451 24.4635 207.51 23.9349 207.51 23.3379ZM211.864 21.7656V28H210.6V20.6035H211.83L211.864 21.7656ZM214.175 20.5625L214.168 21.7383C214.063 21.7155 213.963 21.7018 213.867 21.6973C213.776 21.6882 213.671 21.6836 213.553 21.6836C213.261 21.6836 213.004 21.7292 212.78 21.8203C212.557 21.9115 212.368 22.0391 212.213 22.2031C212.058 22.3672 211.935 22.5632 211.844 22.791C211.757 23.0143 211.7 23.2604 211.673 23.5293L211.317 23.7344C211.317 23.2878 211.361 22.8685 211.447 22.4766C211.538 22.0846 211.677 21.7383 211.864 21.4375C212.051 21.1322 212.288 20.8952 212.575 20.7266C212.867 20.5534 213.213 20.4668 213.614 20.4668C213.705 20.4668 213.81 20.4782 213.929 20.501C214.047 20.5192 214.129 20.5397 214.175 20.5625ZM219.869 26.5645V17.5H221.141V28H219.979L219.869 26.5645ZM214.893 24.3838V24.2402C214.893 23.6751 214.961 23.1624 215.098 22.7021C215.239 22.2373 215.437 21.8385 215.692 21.5059C215.952 21.1732 216.26 20.918 216.615 20.7402C216.975 20.5579 217.376 20.4668 217.818 20.4668C218.283 20.4668 218.689 20.5488 219.035 20.7129C219.386 20.8724 219.682 21.1071 219.924 21.417C220.17 21.7223 220.364 22.0915 220.505 22.5244C220.646 22.9574 220.744 23.4473 220.799 23.9941V24.623C220.749 25.1654 220.651 25.653 220.505 26.0859C220.364 26.5189 220.17 26.888 219.924 27.1934C219.682 27.4987 219.386 27.7334 219.035 27.8975C218.684 28.057 218.274 28.1367 217.805 28.1367C217.372 28.1367 216.975 28.0433 216.615 27.8564C216.26 27.6696 215.952 27.4076 215.692 27.0703C215.437 26.7331 215.239 26.3366 215.098 25.8809C214.961 25.4206 214.893 24.9215 214.893 24.3838ZM216.164 24.2402V24.3838C216.164 24.7529 216.201 25.0993 216.273 25.4229C216.351 25.7464 216.469 26.0312 216.629 26.2773C216.788 26.5234 216.991 26.7171 217.237 26.8584C217.483 26.9951 217.777 27.0635 218.119 27.0635C218.538 27.0635 218.882 26.9746 219.151 26.7969C219.425 26.6191 219.644 26.3844 219.808 26.0928C219.972 25.8011 220.099 25.4844 220.19 25.1426V23.4951C220.136 23.2445 220.056 23.0029 219.951 22.7705C219.851 22.5335 219.719 22.3239 219.555 22.1416C219.395 21.9548 219.197 21.8066 218.96 21.6973C218.728 21.5879 218.452 21.5332 218.133 21.5332C217.786 21.5332 217.488 21.6061 217.237 21.752C216.991 21.8932 216.788 22.0892 216.629 22.3398C216.469 22.5859 216.351 22.873 216.273 23.2012C216.201 23.5247 216.164 23.8711 216.164 24.2402ZM226.179 28.1367C225.664 28.1367 225.197 28.0501 224.777 27.877C224.363 27.6992 224.005 27.4508 223.704 27.1318C223.408 26.8128 223.18 26.4346 223.021 25.9971C222.861 25.5596 222.781 25.0811 222.781 24.5615V24.2744C222.781 23.6729 222.87 23.1374 223.048 22.668C223.226 22.194 223.467 21.793 223.772 21.4648C224.078 21.1367 224.424 20.8883 224.812 20.7197C225.199 20.5511 225.6 20.4668 226.015 20.4668C226.543 20.4668 226.999 20.5579 227.382 20.7402C227.769 20.9225 228.086 21.1777 228.332 21.5059C228.578 21.8294 228.76 22.2122 228.879 22.6543C228.997 23.0918 229.057 23.5703 229.057 24.0898V24.6572H223.533V23.625H227.792V23.5293C227.774 23.2012 227.705 22.8822 227.587 22.5723C227.473 22.2624 227.291 22.0072 227.04 21.8066C226.789 21.6061 226.448 21.5059 226.015 21.5059C225.728 21.5059 225.463 21.5674 225.222 21.6904C224.98 21.8089 224.773 21.9867 224.6 22.2236C224.426 22.4606 224.292 22.75 224.196 23.0918C224.101 23.4336 224.053 23.8278 224.053 24.2744V24.5615C224.053 24.9124 224.101 25.2428 224.196 25.5527C224.297 25.8581 224.44 26.127 224.627 26.3594C224.818 26.5918 225.049 26.7741 225.317 26.9062C225.591 27.0384 225.901 27.1045 226.247 27.1045C226.694 27.1045 227.072 27.0133 227.382 26.8311C227.692 26.6488 227.963 26.4049 228.195 26.0996L228.961 26.708C228.801 26.9495 228.599 27.1797 228.353 27.3984C228.106 27.6172 227.803 27.7949 227.443 27.9316C227.088 28.0684 226.666 28.1367 226.179 28.1367ZM231.798 21.7656V28H230.533V20.6035H231.764L231.798 21.7656ZM234.108 20.5625L234.102 21.7383C233.997 21.7155 233.896 21.7018 233.801 21.6973C233.71 21.6882 233.605 21.6836 233.486 21.6836C233.195 21.6836 232.937 21.7292 232.714 21.8203C232.491 21.9115 232.301 22.0391 232.146 22.2031C231.992 22.3672 231.868 22.5632 231.777 22.791C231.691 23.0143 231.634 23.2604 231.606 23.5293L231.251 23.7344C231.251 23.2878 231.294 22.8685 231.381 22.4766C231.472 22.0846 231.611 21.7383 231.798 21.4375C231.985 21.1322 232.222 20.8952 232.509 20.7266C232.8 20.5534 233.147 20.4668 233.548 20.4668C233.639 20.4668 233.744 20.4782 233.862 20.501C233.981 20.5192 234.063 20.5397 234.108 20.5625Z" fill="white"/>
<defs>
<filter id="filter0_d_37_422" x="-4" y="0" width="398" height="52" filterUnits="userSpaceOnUse" color-interpolation-filters="sRGB">
<feFlood flood-opacity="0" result="BackgroundImageFix"/>
<feColorMatrix in="SourceAlpha" type="matrix" values="0 0 0 0 0 0 0 0 0 0 0 0 0 0 0 0 0 0 127 0" result="hardAlpha"/>
<feOffset dy="4"/>
<feGaussianBlur stdDeviation="2"/>
<feComposite in2="hardAlpha" operator="out"/>
<feColorMatrix type="matrix" values="0 0 0 0 0 0 0 0 0 0 0 0 0 0 0 0 0 0 0.25 0"/>
<feBlend mode="normal" in2="BackgroundImageFix" result="effect1_dropShadow_37_422"/>
<feBlend mode="normal" in="SourceGraphic" in2="effect1_dropShadow_37_422" result="shape"/>
</filter>
</defs>
</svg>
