<svg width="228" height="76" viewBox="0 0 228 76" fill="none" xmlns="http://www.w3.org/2000/svg">
<path d="M10.4062 58.6659C10.4062 58.3612 10.3594 58.0878 10.2656 57.8456C10.1797 57.5956 10.0156 57.369 9.77344 57.1659C9.53125 56.955 9.19141 56.7479 8.75391 56.5448C8.31641 56.3417 7.75 56.1307 7.05469 55.912C6.28125 55.662 5.54688 55.3807 4.85156 55.0682C4.16406 54.7557 3.55469 54.3925 3.02344 53.9784C2.5 53.5565 2.08594 53.0682 1.78125 52.5135C1.48438 51.9589 1.33594 51.3143 1.33594 50.58C1.33594 49.869 1.49219 49.2245 1.80469 48.6464C2.11719 48.0604 2.55469 47.5604 3.11719 47.1464C3.67969 46.7245 4.34375 46.4003 5.10938 46.1737C5.88281 45.9471 6.73047 45.8339 7.65234 45.8339C8.91016 45.8339 10.0078 46.0604 10.9453 46.5135C11.8828 46.9667 12.6094 47.5878 13.125 48.3768C13.6484 49.1659 13.9102 50.0682 13.9102 51.0839H10.418C10.418 50.5839 10.3125 50.1464 10.1016 49.7714C9.89844 49.3885 9.58594 49.0878 9.16406 48.869C8.75 48.6503 8.22656 48.5409 7.59375 48.5409C6.98438 48.5409 6.47656 48.6346 6.07031 48.8221C5.66406 49.0018 5.35938 49.2479 5.15625 49.5604C4.95312 49.8651 4.85156 50.2089 4.85156 50.5917C4.85156 50.8807 4.92188 51.1425 5.0625 51.3768C5.21094 51.6112 5.42969 51.83 5.71875 52.0331C6.00781 52.2362 6.36328 52.4276 6.78516 52.6073C7.20703 52.787 7.69531 52.9628 8.25 53.1346C9.17969 53.4159 9.99609 53.7323 10.6992 54.0839C11.4102 54.4354 12.0039 54.83 12.4805 55.2675C12.957 55.705 13.3164 56.201 13.5586 56.7557C13.8008 57.3104 13.9219 57.9393 13.9219 58.6425C13.9219 59.3846 13.7773 60.0487 13.4883 60.6346C13.1992 61.2206 12.7812 61.7167 12.2344 62.1229C11.6875 62.5292 11.0352 62.8378 10.2773 63.0487C9.51953 63.2596 8.67188 63.3651 7.73438 63.3651C6.89062 63.3651 6.05859 63.2557 5.23828 63.037C4.41797 62.8104 3.67188 62.4706 3 62.0175C2.33594 61.5643 1.80469 60.9862 1.40625 60.2831C1.00781 59.58 0.808594 58.7479 0.808594 57.787H4.33594C4.33594 58.3182 4.41797 58.7675 4.58203 59.1346C4.74609 59.5018 4.97656 59.7987 5.27344 60.0253C5.57812 60.2518 5.9375 60.4159 6.35156 60.5175C6.77344 60.619 7.23438 60.6698 7.73438 60.6698C8.34375 60.6698 8.84375 60.5839 9.23438 60.412C9.63281 60.2401 9.92578 60.0018 10.1133 59.6971C10.3086 59.3925 10.4062 59.0487 10.4062 58.6659ZM25.7344 46.0682H29.2383V57.3417C29.2383 58.6542 28.957 59.7596 28.3945 60.6581C27.8398 61.5565 27.0703 62.2323 26.0859 62.6854C25.1094 63.1385 23.9844 63.3651 22.7109 63.3651C21.4375 63.3651 20.3047 63.1385 19.3125 62.6854C18.3281 62.2323 17.5547 61.5565 16.9922 60.6581C16.4375 59.7596 16.1602 58.6542 16.1602 57.3417V46.0682H19.6758V57.3417C19.6758 58.1073 19.7969 58.7323 20.0391 59.2167C20.2812 59.701 20.6289 60.0565 21.082 60.2831C21.543 60.5096 22.0859 60.6229 22.7109 60.6229C23.3516 60.6229 23.8945 60.5096 24.3398 60.2831C24.793 60.0565 25.1367 59.701 25.3711 59.2167C25.6133 58.7323 25.7344 58.1073 25.7344 57.3417V46.0682ZM41.0156 58.6659C41.0156 58.3612 40.9688 58.0878 40.875 57.8456C40.7891 57.5956 40.625 57.369 40.3828 57.1659C40.1406 56.955 39.8008 56.7479 39.3633 56.5448C38.9258 56.3417 38.3594 56.1307 37.6641 55.912C36.8906 55.662 36.1562 55.3807 35.4609 55.0682C34.7734 54.7557 34.1641 54.3925 33.6328 53.9784C33.1094 53.5565 32.6953 53.0682 32.3906 52.5135C32.0938 51.9589 31.9453 51.3143 31.9453 50.58C31.9453 49.869 32.1016 49.2245 32.4141 48.6464C32.7266 48.0604 33.1641 47.5604 33.7266 47.1464C34.2891 46.7245 34.9531 46.4003 35.7188 46.1737C36.4922 45.9471 37.3398 45.8339 38.2617 45.8339C39.5195 45.8339 40.6172 46.0604 41.5547 46.5135C42.4922 46.9667 43.2188 47.5878 43.7344 48.3768C44.2578 49.1659 44.5195 50.0682 44.5195 51.0839H41.0273C41.0273 50.5839 40.9219 50.1464 40.7109 49.7714C40.5078 49.3885 40.1953 49.0878 39.7734 48.869C39.3594 48.6503 38.8359 48.5409 38.2031 48.5409C37.5938 48.5409 37.0859 48.6346 36.6797 48.8221C36.2734 49.0018 35.9688 49.2479 35.7656 49.5604C35.5625 49.8651 35.4609 50.2089 35.4609 50.5917C35.4609 50.8807 35.5312 51.1425 35.6719 51.3768C35.8203 51.6112 36.0391 51.83 36.3281 52.0331C36.6172 52.2362 36.9727 52.4276 37.3945 52.6073C37.8164 52.787 38.3047 52.9628 38.8594 53.1346C39.7891 53.4159 40.6055 53.7323 41.3086 54.0839C42.0195 54.4354 42.6133 54.83 43.0898 55.2675C43.5664 55.705 43.9258 56.201 44.168 56.7557C44.4102 57.3104 44.5312 57.9393 44.5312 58.6425C44.5312 59.3846 44.3867 60.0487 44.0977 60.6346C43.8086 61.2206 43.3906 61.7167 42.8438 62.1229C42.2969 62.5292 41.6445 62.8378 40.8867 63.0487C40.1289 63.2596 39.2812 63.3651 38.3438 63.3651C37.5 63.3651 36.668 63.2557 35.8477 63.037C35.0273 62.8104 34.2812 62.4706 33.6094 62.0175C32.9453 61.5643 32.4141 60.9862 32.0156 60.2831C31.6172 59.58 31.418 58.7479 31.418 57.787H34.9453C34.9453 58.3182 35.0273 58.7675 35.1914 59.1346C35.3555 59.5018 35.5859 59.7987 35.8828 60.0253C36.1875 60.2518 36.5469 60.4159 36.9609 60.5175C37.3828 60.619 37.8438 60.6698 38.3438 60.6698C38.9531 60.6698 39.4531 60.5839 39.8438 60.412C40.2422 60.2401 40.5352 60.0018 40.7227 59.6971C40.918 59.3925 41.0156 59.0487 41.0156 58.6659ZM58.3008 53.0175V55.7596H49.3945V53.0175H58.3008ZM50.4375 46.0682V63.1307H46.9219V46.0682H50.4375ZM60.8086 46.0682V63.1307H57.3047V46.0682H60.8086ZM67.6055 46.0682V63.1307H64.1016V46.0682H67.6055ZM76.875 46.0682H83.2383C84.543 46.0682 85.6641 46.2635 86.6016 46.6542C87.5469 47.0448 88.2734 47.6229 88.7812 48.3885C89.2891 49.1542 89.543 50.0956 89.543 51.2128C89.543 52.1268 89.3867 52.912 89.0742 53.5682C88.7695 54.2167 88.3359 54.7596 87.7734 55.1971C87.2188 55.6268 86.5664 55.9706 85.8164 56.2284L84.7031 56.8143H79.1719L79.1484 54.0721H83.2617C83.8789 54.0721 84.3906 53.9628 84.7969 53.744C85.2031 53.5253 85.5078 53.2206 85.7109 52.83C85.9219 52.4393 86.0273 51.9862 86.0273 51.4706C86.0273 50.9237 85.9258 50.451 85.7227 50.0526C85.5195 49.6542 85.2109 49.3495 84.7969 49.1385C84.3828 48.9276 83.8633 48.8221 83.2383 48.8221H80.3906V63.1307H76.875V46.0682ZM86.4141 63.1307L82.5234 55.5253L86.2383 55.5018L90.1758 62.9667V63.1307H86.4141ZM106.266 54.201V55.0096C106.266 56.3065 106.09 57.4706 105.738 58.5018C105.387 59.5331 104.891 60.412 104.25 61.1385C103.609 61.8573 102.844 62.4081 101.953 62.7909C101.07 63.1737 100.09 63.3651 99.0117 63.3651C97.9414 63.3651 96.9609 63.1737 96.0703 62.7909C95.1875 62.4081 94.4219 61.8573 93.7734 61.1385C93.125 60.412 92.6211 59.5331 92.2617 58.5018C91.9102 57.4706 91.7344 56.3065 91.7344 55.0096V54.201C91.7344 52.8964 91.9102 51.7323 92.2617 50.7089C92.6133 49.6776 93.1094 48.7987 93.75 48.0721C94.3984 47.3456 95.1641 46.7909 96.0469 46.4081C96.9375 46.0253 97.918 45.8339 98.9883 45.8339C100.066 45.8339 101.047 46.0253 101.93 46.4081C102.82 46.7909 103.586 47.3456 104.227 48.0721C104.875 48.7987 105.375 49.6776 105.727 50.7089C106.086 51.7323 106.266 52.8964 106.266 54.201ZM102.715 55.0096V54.1776C102.715 53.2714 102.633 52.4745 102.469 51.787C102.305 51.0995 102.062 50.5214 101.742 50.0526C101.422 49.5839 101.031 49.2323 100.57 48.9979C100.109 48.7557 99.582 48.6346 98.9883 48.6346C98.3945 48.6346 97.8672 48.7557 97.4062 48.9979C96.9531 49.2323 96.5664 49.5839 96.2461 50.0526C95.9336 50.5214 95.6953 51.0995 95.5312 51.787C95.3672 52.4745 95.2852 53.2714 95.2852 54.1776V55.0096C95.2852 55.9081 95.3672 56.705 95.5312 57.4003C95.6953 58.0878 95.9375 58.6698 96.2578 59.1464C96.5781 59.6151 96.9688 59.9706 97.4297 60.2128C97.8906 60.455 98.418 60.576 99.0117 60.576C99.6055 60.576 100.133 60.455 100.594 60.2128C101.055 59.9706 101.441 59.6151 101.754 59.1464C102.066 58.6698 102.305 58.0878 102.469 57.4003C102.633 56.705 102.715 55.9081 102.715 55.0096ZM119.766 60.3885V63.1307H111.176V60.3885H119.766ZM112.312 46.0682V63.1307H108.797V46.0682H112.312ZM132.75 60.3885V63.1307H124.16V60.3885H132.75ZM125.297 46.0682V63.1307H121.781V46.0682H125.297ZM143.648 58.6659C143.648 58.3612 143.602 58.0878 143.508 57.8456C143.422 57.5956 143.258 57.369 143.016 57.1659C142.773 56.955 142.434 56.7479 141.996 56.5448C141.559 56.3417 140.992 56.1307 140.297 55.912C139.523 55.662 138.789 55.3807 138.094 55.0682C137.406 54.7557 136.797 54.3925 136.266 53.9784C135.742 53.5565 135.328 53.0682 135.023 52.5135C134.727 51.9589 134.578 51.3143 134.578 50.58C134.578 49.869 134.734 49.2245 135.047 48.6464C135.359 48.0604 135.797 47.5604 136.359 47.1464C136.922 46.7245 137.586 46.4003 138.352 46.1737C139.125 45.9471 139.973 45.8339 140.895 45.8339C142.152 45.8339 143.25 46.0604 144.188 46.5135C145.125 46.9667 145.852 47.5878 146.367 48.3768C146.891 49.1659 147.152 50.0682 147.152 51.0839H143.66C143.66 50.5839 143.555 50.1464 143.344 49.7714C143.141 49.3885 142.828 49.0878 142.406 48.869C141.992 48.6503 141.469 48.5409 140.836 48.5409C140.227 48.5409 139.719 48.6346 139.312 48.8221C138.906 49.0018 138.602 49.2479 138.398 49.5604C138.195 49.8651 138.094 50.2089 138.094 50.5917C138.094 50.8807 138.164 51.1425 138.305 51.3768C138.453 51.6112 138.672 51.83 138.961 52.0331C139.25 52.2362 139.605 52.4276 140.027 52.6073C140.449 52.787 140.938 52.9628 141.492 53.1346C142.422 53.4159 143.238 53.7323 143.941 54.0839C144.652 54.4354 145.246 54.83 145.723 55.2675C146.199 55.705 146.559 56.201 146.801 56.7557C147.043 57.3104 147.164 57.9393 147.164 58.6425C147.164 59.3846 147.02 60.0487 146.73 60.6346C146.441 61.2206 146.023 61.7167 145.477 62.1229C144.93 62.5292 144.277 62.8378 143.52 63.0487C142.762 63.2596 141.914 63.3651 140.977 63.3651C140.133 63.3651 139.301 63.2557 138.48 63.037C137.66 62.8104 136.914 62.4706 136.242 62.0175C135.578 61.5643 135.047 60.9862 134.648 60.2831C134.25 59.58 134.051 58.7479 134.051 57.787H137.578C137.578 58.3182 137.66 58.7675 137.824 59.1346C137.988 59.5018 138.219 59.7987 138.516 60.0253C138.82 60.2518 139.18 60.4159 139.594 60.5175C140.016 60.619 140.477 60.6698 140.977 60.6698C141.586 60.6698 142.086 60.5839 142.477 60.412C142.875 60.2401 143.168 60.0018 143.355 59.6971C143.551 59.3925 143.648 59.0487 143.648 58.6659Z" fill="#7768CD"/>
<g clip-path="url(#clip0_175_4159)">
<path d="M84.9457 9.31545C84.9371 8.51617 84.8079 7.7231 84.5628 6.96454C83.9912 5.38944 82.6309 4.26687 81.4363 3.26774C79.7502 1.86895 78.0926 0.622977 76.2179 0.669995C73.1189 1.28236 70.0931 2.23605 67.1928 3.51459C66.615 3.65238 66.1074 4.00578 65.7685 4.50633C65.4295 5.00687 65.2833 5.61895 65.3581 6.22402L64.7065 6.18288C64.6864 5.42357 64.8853 4.67513 65.278 4.03179C65.7174 3.5109 66.2835 3.11944 66.9184 2.89748C69.8719 1.59625 72.9534 0.626752 76.1093 0.00586094H76.155C78.2527 -0.0646663 80.036 1.26359 81.8307 2.75642C83.031 3.74968 84.5228 4.98979 85.1572 6.73534C85.4265 7.55776 85.5692 8.41837 85.5802 9.28607L84.9457 9.31545Z" fill="#7768CD"/>
<path d="M83.414 31.3199L83.2825 31.2318C82.3394 30.644 81.4021 29.9975 80.4933 29.3099L80.8762 28.7692C81.7336 29.4157 82.5909 30.021 83.4883 30.5794L91.2845 27.6819C92.6734 27.1647 94.068 26.5593 94.5882 25.331C94.6625 23.1858 94.5882 21.0288 94.5482 18.9424C94.5822 17.9012 94.443 16.8616 94.1366 15.8686C93.5651 14.3111 92.1876 13.2003 90.9759 12.2188C89.2612 10.8376 87.5922 9.58579 85.7003 9.65631C82.5639 10.255 79.4983 11.1947 76.5552 12.4598C75.9597 12.5931 75.436 12.9549 75.0908 13.4714C74.7457 13.9879 74.6051 14.6203 74.6976 15.2397V15.7569L74.046 15.7275V15.2045C73.964 14.454 74.151 13.6986 74.5718 13.0797C74.9927 12.4608 75.6186 12.021 76.3322 11.8427C79.317 10.5503 82.4265 9.58688 85.6088 8.96866H85.6603C87.7865 8.89814 89.5755 10.2088 91.3759 11.6781C92.5877 12.6655 94.0966 13.8879 94.7368 15.6159C95.0695 16.6805 95.226 17.7951 95.1997 18.913C95.2512 21.0288 95.3083 23.221 95.234 25.378V25.4897C94.6282 27.0236 93.0049 27.7407 91.5246 28.2872L83.414 31.3199Z" fill="#7768CD"/>
<path d="M82.751 30.2151C82.358 30.1749 81.9905 29.9963 81.7108 29.7096L80.1561 28.3579L80.5848 27.8466C81.0935 28.305 81.6079 28.7517 82.128 29.1983C82.3509 29.3864 82.6367 29.598 82.8367 29.5274C83.0368 29.4569 83.134 28.9397 83.1283 28.6165V24.8256C83.1283 22.651 83.1283 20.4001 82.4309 18.3136C81.6936 16.045 80.179 14.3641 78.3899 13.8234C78.0354 13.682 77.6522 13.6337 77.2749 13.6829C76.8977 13.7322 76.5383 13.8774 76.2294 14.1055C75.6864 14.6227 75.6064 15.5219 75.5721 16.3918V16.4623L74.9148 16.4329V16.3683C74.9548 15.3515 75.052 14.3053 75.7779 13.6177C76.1659 13.3023 76.627 13.0959 77.1159 13.0186C77.6048 12.9413 78.1049 12.9959 78.5671 13.1769C80.5619 13.7646 82.2366 15.6219 83.0482 18.1021C83.757 20.2884 83.7684 22.5923 83.7741 24.8256V28.6106C83.7741 29.4687 83.5284 29.9918 83.0368 30.1622C82.9448 30.1951 82.8484 30.213 82.751 30.2151Z" fill="#7768CD"/>
<path d="M68.5074 35.3224C68.1161 35.2801 67.7498 35.1042 67.4671 34.8228C65.1065 32.7952 63.409 31.2495 61.6028 29.4804C61.3408 29.2251 61.1314 28.9181 60.987 28.5779C60.8427 28.2376 60.7664 27.871 60.7626 27.4998C60.7626 26.771 60.7283 26.0246 60.7055 25.2723C60.6597 24.0028 60.6197 22.6863 60.6655 21.4756C60.6998 20.4941 60.7626 18.8426 62.2659 18.2666C62.8396 18.0647 63.4593 18.0462 64.0434 18.2137C66.1697 18.7309 67.9472 20.5999 68.7989 23.2094C69.5076 25.3957 69.5191 27.7055 69.5248 29.933V33.7238C69.5248 34.576 69.2847 35.0991 68.7932 35.2695C68.7012 35.3024 68.6048 35.3203 68.5074 35.3224ZM63.1861 18.772C62.9502 18.7694 62.7157 18.8112 62.4945 18.8955C61.4828 19.2834 61.3513 20.353 61.317 21.505C61.2828 22.6569 61.317 23.9911 61.3571 25.2547C61.3571 26.007 61.4085 26.7592 61.4142 27.4939C61.4171 27.7747 61.4747 28.052 61.5837 28.3094C61.6926 28.5668 61.8508 28.7991 62.0487 28.9926C63.8434 30.7558 65.5352 32.2897 67.8844 34.2821C68.1073 34.4761 68.3931 34.6818 68.5931 34.6113C68.7932 34.5407 68.8846 34.0235 68.8846 33.7003V29.9153C68.8846 27.7349 68.8846 25.4839 68.1873 23.3974C67.5872 21.5579 66.1468 19.3891 63.9005 18.8426C63.6662 18.7883 63.4262 18.7646 63.1861 18.772Z" fill="#7768CD"/>
<path d="M68.9074 36.9034L68.776 36.8152C65.4698 34.7375 62.4757 32.1755 59.8881 29.21L59.8138 29.1277V29.0219C59.5089 26.291 59.4248 23.5389 59.5623 20.7937C59.5355 20 59.7449 19.2168 60.1624 18.5486C60.6105 18.0324 61.1818 17.6455 61.82 17.4261C64.8102 16.1435 67.9233 15.188 71.108 14.5756H71.1537C73.28 14.5051 75.0747 15.8157 76.8694 17.285C78.0811 18.2724 79.5901 19.4949 80.2302 21.2228C80.5649 22.2869 80.7195 23.4021 80.6875 24.5199C80.7446 26.6357 80.8018 28.8221 80.7275 30.9849L80.6989 31.1025C80.1274 32.6364 78.4698 33.3535 76.9951 33.9L68.9074 36.9034ZM60.4597 28.8397C62.9513 31.6859 65.827 34.1501 68.9989 36.1569L76.7951 33.2653C78.184 32.7481 79.5786 32.1428 80.0988 30.9144C80.1731 28.7692 80.0988 26.6122 80.0588 24.5258C80.0899 23.4828 79.9508 22.4418 79.6472 21.4461C79.0757 19.8945 77.6982 18.7837 76.4865 17.8022C74.7717 16.4211 73.0913 15.1692 71.2052 15.2338C68.0694 15.8378 65.0041 16.7794 62.06 18.0432C61.4645 18.1765 60.9409 18.5383 60.5957 19.0548C60.2506 19.5713 60.1099 20.2037 60.2024 20.8231C60.0749 23.4981 60.1609 26.1792 60.4597 28.8397Z" fill="#7768CD"/>
<path d="M67.7472 27.3587V26.1421C67.7472 26.0834 67.7129 26.0305 67.6957 25.9717H67.5128C66.7712 26.0472 66.0601 26.3141 65.4456 26.7477C64.831 27.1813 64.333 27.7675 63.9977 28.4519C63.8296 28.7571 63.7559 29.1076 63.7862 29.4569C63.9064 29.9099 64.1749 30.3064 64.5464 30.5795L66.5526 32.3955C66.7284 32.5821 66.9639 32.6969 67.2156 32.7188C67.3051 32.7182 67.3932 32.6961 67.4728 32.6541C67.8272 32.4602 67.81 31.9782 67.8043 31.8019C67.7472 30.3502 67.7472 28.9162 67.7472 27.3587ZM67.2613 32.278C67.1813 32.3191 67.027 32.2486 66.8327 32.0723L64.8264 30.2621C64.5339 30.0556 64.3183 29.753 64.2149 29.404C64.1938 29.1473 64.2518 28.8903 64.3806 28.6694C64.6651 28.0909 65.0784 27.5898 65.587 27.2068C66.0955 26.8237 66.6849 26.5697 67.3071 26.4654V27.3587C67.3071 28.8986 67.3071 30.362 67.3642 31.8372C67.3699 32.084 67.3185 32.2368 67.2613 32.278Z" fill="#7768CD"/>
<path d="M67.7472 26.1304C67.231 24.9233 66.478 23.8388 65.5352 22.9449C65.2696 22.6116 64.9279 22.3512 64.5406 22.1867C64.1538 22.0903 63.7501 22.0903 63.3632 22.1867C63.0386 22.2119 62.7229 22.3081 62.4373 22.4689C62.1076 22.7026 61.8751 23.0549 61.7857 23.4562C61.7065 23.8206 61.6719 24.1938 61.6828 24.567C61.6472 25.0814 61.7073 25.5981 61.86 26.0893C62.0983 26.6723 62.524 27.1537 63.066 27.4528C63.4691 27.6698 63.8923 27.845 64.3292 27.9759L64.6893 28.0993L64.8379 28.1522L64.9293 28.0287C65.5882 27.1801 66.5324 26.616 67.5757 26.4478H67.7529L67.7472 26.1304ZM64.6835 27.5938L64.4606 27.5174C64.049 27.395 63.6507 27.2295 63.2718 27.0238C62.819 26.7776 62.462 26.3793 62.2601 25.8953C62.1325 25.4534 62.0822 24.9918 62.1115 24.5318C62.1014 24.1981 62.1321 23.8644 62.2029 23.5385C62.2609 23.2436 62.4266 22.9828 62.6659 22.8097C62.8992 22.6874 63.1536 22.6135 63.4147 22.5923C63.6039 22.5625 63.7948 22.5448 63.9862 22.5394C64.1256 22.5349 64.2648 22.5548 64.3978 22.5982C64.7156 22.745 64.9955 22.9664 65.2151 23.2447C66.0425 24.0402 66.7274 24.9792 67.2385 26.0187C66.242 26.2417 65.3443 26.7951 64.6835 27.5938Z" fill="#7768CD"/>
<path d="M62.1402 24.802L61.7744 24.5552C62.4657 23.4726 63.5191 22.6884 64.7351 22.3512L64.8437 22.7861C63.7327 23.0945 62.7705 23.8119 62.1402 24.802Z" fill="#7768CD"/>
<path d="M62.5232 26.3948L62.1345 26.2008C62.4714 25.4865 62.9437 24.8486 63.5238 24.3248C64.104 23.8009 64.7801 23.4017 65.5125 23.1505L65.644 23.5796C64.968 23.8122 64.344 24.181 63.8081 24.6643C63.2723 25.1477 62.8355 25.7359 62.5232 26.3948Z" fill="#7768CD"/>
<path d="M63.6377 27.3822L63.249 27.1706C63.5981 26.5101 64.0772 25.9316 64.6559 25.4722C65.2345 25.0127 65.9 24.6824 66.6098 24.5023L66.7127 24.9431C66.063 25.1063 65.4536 25.4077 64.924 25.8278C64.3944 26.2479 63.9562 26.7774 63.6377 27.3822Z" fill="#7768CD"/>
<path d="M59.025 25.8012C58.6313 25.7616 58.2625 25.5854 57.979 25.3016C55.6242 23.2799 53.9209 21.7283 52.1147 19.9592C51.8544 19.7037 51.646 19.3976 51.5018 19.0586C51.3575 18.7196 51.2803 18.3544 51.2745 17.9844C51.2745 17.2557 51.2459 16.5093 51.2174 15.757C51.1773 14.4875 51.1316 13.171 51.1831 11.9602C51.2174 10.9729 51.2802 9.32723 52.7835 8.74538C53.3571 8.5431 53.977 8.52466 54.561 8.69249C56.6816 9.20969 58.4591 11.0787 59.3108 13.6941C60.0252 15.8804 60.0367 18.1843 60.0424 20.4176V24.2026C60.0424 25.0607 59.8023 25.5838 59.3108 25.7542C59.2185 25.7853 59.1221 25.8012 59.025 25.8012ZM53.7037 9.2567C53.4681 9.25219 53.2337 9.29204 53.0121 9.37426C52.0004 9.76803 51.8689 10.8318 51.8347 11.9838C51.8004 13.1357 51.8346 14.4757 51.8747 15.7335C51.8747 16.4916 51.9204 17.2439 51.9318 17.9727C51.9352 18.2542 51.993 18.5323 52.102 18.7906C52.2109 19.0489 52.3687 19.2823 52.5663 19.4773C54.361 21.2405 56.0528 22.7686 58.402 24.7668C58.6249 24.9608 58.905 25.1724 59.1107 25.1018C59.3165 25.0313 59.4022 24.5141 59.4022 24.185V20.4C59.4022 18.2254 59.4022 15.9744 58.7049 13.888C58.1333 12.0425 56.6644 9.87971 54.4181 9.32724C54.1834 9.27577 53.9437 9.25209 53.7037 9.2567Z" fill="#7768CD"/>
<path d="M59.9223 27.2001L59.4251 27.3822L59.2936 27.3C55.9866 25.2188 52.9908 22.655 50.4 19.6889L50.3314 19.6125V19.5008C50.0265 16.77 49.9424 14.0178 50.0799 11.2727C50.0539 10.479 50.2632 9.69598 50.6801 9.02753C51.1284 8.51305 51.6998 8.12809 52.3376 7.91085C55.3186 6.61914 58.4243 5.65576 61.6028 5.03686H61.6485C63.769 4.96046 65.5694 6.27697 67.3642 7.74629C68.5759 8.72779 70.0849 9.95027 70.725 11.6782C71.0593 12.7444 71.2139 13.8615 71.1823 14.9812H70.5307C70.5593 13.9383 70.4203 12.8978 70.1191 11.9015C69.5476 10.3499 68.1701 9.23324 66.9584 8.25761C65.2437 6.87058 63.5632 5.6246 61.6771 5.68925C58.5413 6.29028 55.4759 7.22996 52.532 8.4927C52.0001 8.66754 51.5215 8.98144 51.143 9.40367C50.8348 9.97731 50.6958 10.6308 50.7429 11.2844C50.6088 13.9667 50.6891 16.6557 50.983 19.3245C53.4777 22.1675 56.3529 24.6312 59.5222 26.6417L59.8823 26.5065L59.9223 27.2001Z" fill="#7768CD"/>
<path d="M58.2649 17.8375V16.6092C58.2425 16.5677 58.2233 16.5245 58.2078 16.4799H58.0363C57.2938 16.5576 56.5823 16.8261 55.9671 17.2605C55.3518 17.6949 54.8527 18.2813 54.5154 18.9659C54.3525 19.2708 54.2809 19.6184 54.3097 19.9651C54.4291 20.42 54.6976 20.8187 55.0699 21.0935L57.0761 22.9037C57.2516 23.0915 57.4869 23.2083 57.7391 23.2328C57.8294 23.2332 57.9182 23.2089 57.9963 23.1623C58.3507 22.9684 58.3335 22.4923 58.3278 22.3101C58.2649 20.8349 58.2649 19.3774 58.2649 17.8375ZM57.7791 22.7568C57.6991 22.8038 57.5448 22.7568 57.3504 22.557L55.3442 20.7409C55.0512 20.5361 54.8338 20.236 54.7269 19.8887C54.7091 19.6296 54.7689 19.3711 54.8984 19.1481C55.1828 18.5697 55.5962 18.0685 56.1047 17.6855C56.6133 17.3025 57.2027 17.0485 57.8248 16.9442V17.8375C57.8248 19.3832 57.8248 20.8408 57.882 22.316C57.8896 22.5707 57.8553 22.7176 57.7791 22.7568Z" fill="#7768CD"/>
<path d="M58.2593 16.574C57.743 15.3704 56.9898 14.2898 56.0473 13.4002C55.8103 13.051 55.4725 12.7871 55.0818 12.6458C54.6911 12.5045 54.2671 12.4929 53.8696 12.6127C53.5473 12.6409 53.2341 12.7369 52.9494 12.8948C52.6186 13.1299 52.3859 13.4845 52.2978 13.888C52.2186 14.2505 52.1841 14.6217 52.1949 14.993C52.1589 15.5069 52.2171 16.0233 52.3664 16.5152C52.6047 17.0983 53.0305 17.5796 53.5724 17.8787C53.9779 18.0966 54.4028 18.2737 54.8413 18.4077L55.2014 18.5311L55.3443 18.584L55.4415 18.4605C56.0974 17.6083 57.043 17.0434 58.0878 16.8796L58.2593 16.8502V16.574ZM55.2014 18.055L54.9785 17.9845C54.5678 17.8593 54.1697 17.694 53.7896 17.4908C53.3339 17.2459 52.9759 16.8445 52.7779 16.3565C52.6478 15.9171 52.5975 15.4569 52.6293 14.9988C52.6192 14.6632 52.65 14.3275 52.7208 13.9997C52.7801 13.707 52.9456 13.4485 53.1838 13.2768C53.415 13.1493 53.6705 13.075 53.9325 13.0593C54.1213 13.0247 54.3124 13.005 54.5041 13.0006C54.6433 12.9991 54.782 13.0189 54.9156 13.0593C55.2335 13.2062 55.5134 13.4276 55.733 13.7058C56.5606 14.5035 57.2454 15.4444 57.7563 16.4858C56.7581 16.7115 55.8602 17.2692 55.2014 18.0726V18.055Z" fill="#7768CD"/>
<path d="M52.6578 15.275L52.292 15.0341C52.9797 13.948 54.0346 13.1627 55.2527 12.8301L55.3613 13.2591C54.2495 13.5659 53.2869 14.2837 52.6578 15.275Z" fill="#7768CD"/>
<path d="M53.0294 16.8795L52.635 16.6856C52.9726 15.9718 53.4453 15.3344 54.0253 14.8107C54.6053 14.2869 55.281 13.8873 56.013 13.6353L56.1502 14.0584C55.4739 14.292 54.8496 14.6618 54.3138 15.1462C53.778 15.6305 53.3414 16.2198 53.0294 16.8795Z" fill="#7768CD"/>
<path d="M54.1725 17.8611L53.7896 17.6553C54.1377 16.9941 54.6166 16.4151 55.1954 15.9556C55.7742 15.496 56.4402 15.1661 57.1504 14.9871L57.2533 15.422C56.6031 15.5862 55.9934 15.8878 55.463 16.3078C54.9326 16.7277 54.4931 17.2567 54.1725 17.8611Z" fill="#7768CD"/>
<path d="M73.9487 15.7099C73.9487 13.6764 73.9487 11.3666 73.2571 9.2449C72.5255 6.94101 71.0279 5.2366 69.2561 4.69002C68.9078 4.54413 68.5287 4.49397 68.1559 4.54447C67.7831 4.59496 67.4295 4.74437 67.1298 4.978C66.5926 5.50107 66.5125 6.41206 66.4782 7.29953V7.38768H65.8267V7.29364C65.8667 6.271 65.9638 5.2131 66.684 4.51371C67.0659 4.19509 67.5229 3.98597 68.0088 3.90752C68.4946 3.82908 68.9919 3.8841 69.4504 4.06703C71.4223 4.68414 73.0799 6.54723 73.8801 9.05682C74.5831 11.2667 74.5945 13.6293 74.6003 15.7099H73.9487Z" fill="#7768CD"/>
<path d="M72.777 11.9249C72.777 11.9249 72.777 11.8779 72.777 11.8603C72.7747 11.8467 72.7747 11.8328 72.777 11.8192C72.777 11.8192 72.777 11.778 72.7485 11.7604H72.5713C71.8782 11.8336 71.2121 12.0753 70.6279 12.4657C70.6851 12.6067 70.7365 12.7536 70.7823 12.9006C71.2577 12.5611 71.8003 12.3343 72.3712 12.2364V13.1298C72.3712 13.7587 72.3712 14.3699 72.3712 14.9752C72.5141 14.9752 72.6627 14.9752 72.8056 14.9752C72.8056 14.3875 72.8056 13.7528 72.8056 13.1121L72.777 11.9249Z" fill="#7768CD"/>
<path d="M72.777 11.9896C72.777 11.9896 72.777 11.9485 72.777 11.925C72.2624 10.717 71.5091 9.63221 70.565 8.73948C70.2982 8.40615 69.957 8.14402 69.5705 7.97543C69.1811 7.88482 68.7768 7.88482 68.3874 7.97543C68.1724 8.00662 67.9602 8.05576 67.7529 8.12236C67.8718 8.23369 67.9808 8.35562 68.0787 8.48675C68.1988 8.45736 68.3245 8.43974 68.4502 8.42211C68.639 8.38742 68.8301 8.36777 69.0218 8.36333C69.1616 8.36089 69.3007 8.38275 69.4333 8.42799C69.7523 8.5729 70.0327 8.79463 70.2507 9.07448C71.0795 9.86878 71.7645 10.808 72.274 11.8485C71.7005 11.9788 71.157 12.2223 70.6736 12.5656C70.725 12.711 70.7652 12.8603 70.7937 13.0123C71.3292 12.6105 71.9505 12.3465 72.6056 12.2423H72.777V11.9896Z" fill="#7768CD"/>
<path d="M68.3987 9.28609C68.845 8.95522 69.3469 8.71211 69.8791 8.56907L69.7705 8.13416C69.1935 8.2945 68.6481 8.55701 68.1587 8.90994C68.233 9.03924 68.313 9.16267 68.3987 9.28609Z" fill="#7768CD"/>
<path d="M69.2847 10.1088C69.7123 9.79697 70.1822 9.55142 70.6793 9.38007L70.5479 8.95691C69.9572 9.15771 69.4029 9.45756 68.9075 9.84436C69.0441 9.91484 69.171 10.0038 69.2847 10.1088Z" fill="#7768CD"/>
<path d="M70.045 11.0728C70.0964 11.1904 70.165 11.3079 70.2279 11.4254C70.6898 11.1005 71.2048 10.8636 71.7483 10.7261L71.6454 10.2911C71.0694 10.4364 70.5221 10.6829 70.0278 11.0199L70.045 11.0728Z" fill="#7768CD"/>
<path d="M82.0307 26.718C81.9793 25.2487 81.9793 23.7794 81.9793 22.2572V21.0229C81.976 20.9956 81.976 20.968 81.9793 20.9407C81.9793 20.9407 81.9793 20.9407 81.9793 20.9054H81.8078C81.1372 20.9717 80.491 21.1992 79.9216 21.5695C79.9788 21.7106 80.0359 21.8458 80.0874 21.9868C80.548 21.6825 81.0662 21.4822 81.6078 21.3991V22.2924C81.6078 23.8323 81.6078 25.2957 81.6592 26.7709C81.6592 27.0177 81.6592 27.1706 81.5563 27.2117C81.4534 27.2528 81.322 27.2117 81.1276 27.006L80.3732 26.3243C80.3732 26.5241 80.3732 26.7239 80.3732 26.912L80.8419 27.3351C81.0158 27.5252 81.252 27.6424 81.5049 27.6643C81.5944 27.6637 81.6825 27.6416 81.7621 27.5996C82.0536 27.3763 82.0364 26.8943 82.0307 26.718Z" fill="#7768CD"/>
<path d="M81.9679 20.9995C81.4515 19.7991 80.7006 18.7208 79.7616 17.8316C79.4961 17.4984 79.1544 17.2379 78.7671 17.0735C78.3802 16.977 77.9765 16.977 77.5896 17.0735C77.2644 17.0952 76.948 17.1916 76.6637 17.3556C76.6414 17.3714 76.6203 17.3891 76.6008 17.4085L76.9323 17.7141C77.1558 17.601 77.3984 17.5332 77.6468 17.5143C77.8361 17.4847 78.027 17.4671 78.2184 17.4614C78.3578 17.4569 78.4969 17.4768 78.6299 17.5201C78.9477 17.667 79.2277 17.8884 79.4472 18.1666C80.2747 18.9622 80.9596 19.9012 81.4706 20.9407C80.9674 21.0528 80.4862 21.2515 80.0474 21.5284C80.0806 21.6798 80.1226 21.8289 80.1731 21.9751C80.667 21.6477 81.2218 21.4295 81.8021 21.3345H81.9736C81.9764 21.2855 81.9764 21.2365 81.9736 21.1875C81.9666 21.1251 81.9647 21.0622 81.9679 20.9995Z" fill="#7768CD"/>
<path d="M77.4867 18.4781C77.96 18.1068 78.5 17.8352 79.0756 17.6788L78.967 17.2439C78.3234 17.4224 77.7197 17.7278 77.1895 18.1431L77.4867 18.4781Z" fill="#7768CD"/>
<path d="M78.4469 19.2304C78.8829 18.9044 79.3648 18.6487 79.8758 18.4722L79.7444 18.0491C79.1605 18.2482 78.6122 18.544 78.1211 18.9248L78.4469 19.2304Z" fill="#7768CD"/>
<path d="M79.2072 20.1767C79.2072 20.2061 79.2072 20.2355 79.2072 20.2648C79.2282 20.3848 79.2588 20.5027 79.2987 20.6175C79.7918 20.2526 80.3488 19.9892 80.9391 19.8417L80.8362 19.4009C80.252 19.5516 79.6972 19.804 79.1958 20.1473C79.1958 20.1473 79.2072 20.1649 79.2072 20.1767Z" fill="#7768CD"/>
</g>
<defs>
<clipPath id="clip0_175_4159">
<rect width="45.274" height="36.9034" fill="white" transform="translate(50)"/>
</clipPath>
</defs>
</svg>
